<svg width="450" height="300" viewBox="0 0 450 300" fill="none" xmlns="http://www.w3.org/2000/svg">
<path d="M449.17 262.841H0V263.042H449.17V262.841Z" fill="#EBEBEB"/>
<path d="M404.163 275.759H374.41V275.959H404.163V275.759Z" fill="#EBEBEB"/>
<path d="M297.548 277.942H289.742V278.143H297.548V277.942Z" fill="#EBEBEB"/>
<path d="M373.512 268.309H356.272V268.509H373.512V268.309Z" fill="#EBEBEB"/>
<path d="M85.9262 269.657H47.127V269.858H85.9262V269.657Z" fill="#EBEBEB"/>
<path d="M99.6167 269.657H93.9302V269.858H99.6167V269.657Z" fill="#EBEBEB"/>
<path d="M202.261 273.045H118.105V273.246H202.261V273.045Z" fill="#EBEBEB"/>
<path d="M212.907 227.036H39.4462C38.0873 227.034 36.7849 226.55 35.8249 225.69C34.8649 224.831 34.3257 223.666 34.3257 222.452V4.54393C34.3375 3.33652 34.8819 2.18203 35.8407 1.33124C36.7994 0.480451 38.0951 0.00206836 39.4462 0H212.907C214.267 0 215.572 0.482963 216.534 1.34264C217.496 2.20232 218.036 3.3683 218.036 4.58407V222.452C218.036 223.668 217.496 224.834 216.534 225.693C215.572 226.553 214.267 227.036 212.907 227.036ZM39.4462 0.160563C38.1469 0.16269 36.9016 0.625445 35.9837 1.44725C35.0658 2.26906 34.5503 3.38278 34.5503 4.54393V222.452C34.5503 223.613 35.0658 224.727 35.9837 225.548C36.9016 226.37 38.1469 226.833 39.4462 226.835H212.907C214.207 226.833 215.453 226.371 216.372 225.549C217.292 224.727 217.809 223.614 217.812 222.452V4.54393C217.809 3.38204 217.292 2.26835 216.372 1.44676C215.453 0.625184 214.207 0.162686 212.907 0.160563H39.4462Z" fill="#EBEBEB"/>
<path d="M407.226 227.036H233.757C232.397 227.034 231.094 226.55 230.132 225.691C229.171 224.832 228.63 223.667 228.627 222.452V4.54393C228.642 3.33578 229.188 2.18131 230.148 1.33074C231.108 0.48017 232.405 0.0020458 233.757 0H407.226C408.576 0.00417824 409.869 0.483494 410.826 1.33406C411.783 2.18462 412.326 3.3379 412.338 4.54393V222.452C412.338 223.665 411.8 224.828 410.842 225.688C409.884 226.547 408.584 227.032 407.226 227.036ZM233.757 0.160563C232.457 0.162686 231.211 0.625184 230.291 1.44676C229.372 2.26835 228.854 3.38204 228.852 4.54393V222.452C228.854 223.614 229.372 224.727 230.291 225.549C231.211 226.371 232.457 226.833 233.757 226.835H407.226C408.526 226.833 409.773 226.371 410.692 225.549C411.611 224.727 412.129 223.614 412.131 222.452V4.54393C412.129 3.38204 411.611 2.26835 410.692 1.44676C409.773 0.625184 408.526 0.162686 407.226 0.160563H233.757Z" fill="#EBEBEB"/>
<path d="M76.7182 146.73H81.7759L81.7759 51.5967H76.7182L76.7182 146.73Z" fill="#E0E0E0"/>
<path d="M175.886 51.605H79.6377V146.738H175.886V51.605Z" fill="#E0E0E0"/>
<path d="M178.958 51.605H79.126V146.738H178.958V51.605Z" fill="#F0F0F0"/>
<path d="M174.736 54.6396H83.1953V142.363H174.736V54.6396Z" fill="white"/>
<path d="M174.736 54.6396H172.086V142.363H174.736V54.6396Z" fill="#E0E0E0"/>
<path d="M82.9526 117.717V120.085H172.364V117.717H82.9526Z" fill="#E0E0E0"/>
<path d="M174.736 113.751H81.7759V117.725H174.736V113.751Z" fill="#F0F0F0"/>
<path d="M245.884 261.356H378.309V111.495L245.884 111.495L245.884 261.356Z" fill="#F0F0F0"/>
<path d="M250.565 148.994H373.628V116.946L250.565 116.946V148.994Z" fill="#E0E0E0"/>
<path d="M366.63 148.994H373.619V122.14H366.63V148.994Z" fill="#EBEBEB"/>
<path d="M332.825 148.994H339.814V122.14H332.825V148.994Z" fill="#EBEBEB"/>
<path d="M289.354 147.932L296.242 148.993L301.346 122.529L294.459 121.468L289.354 147.932Z" fill="#EBEBEB"/>
<path d="M357.979 148.994H364.968V125.673H357.979V148.994Z" fill="#EBEBEB"/>
<path d="M341.899 148.994H348.888V125.673H341.899V148.994Z" fill="#EBEBEB"/>
<path d="M301.339 148.994H308.328V125.673H301.339V148.994Z" fill="#EBEBEB"/>
<path d="M318 147.638L324.822 148.993L330.484 126.227L323.661 124.872L318 147.638Z" fill="#EBEBEB"/>
<path d="M351.934 148.994H355.428V120.8H351.934V148.994Z" fill="#EBEBEB"/>
<path d="M310.349 148.994H313.844V120.8H310.349V148.994Z" fill="#EBEBEB"/>
<path d="M373.619 154.076H250.556V186.125H373.619V154.076Z" fill="#E0E0E0"/>
<path d="M257.545 159.262H250.556V186.116H257.545V159.262Z" fill="#EBEBEB"/>
<path d="M291.349 159.262H284.36V186.116H291.349V159.262Z" fill="#EBEBEB"/>
<path d="M329.729 158.583L322.842 159.644L327.946 186.108L334.834 185.047L329.729 158.583Z" fill="#EBEBEB"/>
<path d="M266.214 162.803H259.225V186.124H266.214V162.803Z" fill="#EBEBEB"/>
<path d="M282.276 162.803H275.287V186.124H282.276V162.803Z" fill="#EBEBEB"/>
<path d="M322.836 162.803H315.847V186.124H322.836V162.803Z" fill="#EBEBEB"/>
<path d="M300.543 161.99L293.72 163.345L299.382 186.112L306.205 184.757L300.543 161.99Z" fill="#EBEBEB"/>
<path d="M272.26 157.93H268.765V186.125H272.26V157.93Z" fill="#EBEBEB"/>
<path d="M313.835 157.93H310.34V186.125H313.835V157.93Z" fill="#EBEBEB"/>
<path d="M366.63 186.116H373.619V159.262H366.63V186.116Z" fill="#EBEBEB"/>
<path d="M357.979 186.116H364.968V162.795H357.979V186.116Z" fill="#EBEBEB"/>
<path d="M341.899 186.116H348.888V162.795H341.899V186.116Z" fill="#EBEBEB"/>
<path d="M351.934 186.116H355.428V157.922H351.934V186.116Z" fill="#EBEBEB"/>
<path d="M250.565 223.239H373.628V191.19H250.565V223.239Z" fill="#E0E0E0"/>
<path d="M295.994 223.239H302.983V196.384H295.994V223.239Z" fill="#EBEBEB"/>
<path d="M252.525 222.167L259.413 223.228L264.517 196.764L257.629 195.703L252.525 222.167Z" fill="#EBEBEB"/>
<path d="M321.147 223.239H328.136V199.917H321.147V223.239Z" fill="#EBEBEB"/>
<path d="M305.076 223.239H312.065V199.917H305.076V223.239Z" fill="#EBEBEB"/>
<path d="M264.507 223.239H271.496V199.917H264.507V223.239Z" fill="#EBEBEB"/>
<path d="M281.174 221.873L287.997 223.228L293.659 200.462L286.836 199.106L281.174 221.873Z" fill="#EBEBEB"/>
<path d="M315.102 223.239H318.596V195.044H315.102V223.239Z" fill="#EBEBEB"/>
<path d="M273.517 223.239H277.012V195.044H273.517V223.239Z" fill="#EBEBEB"/>
<path d="M332.955 222.169L339.842 223.229L344.947 196.766L338.059 195.705L332.955 222.169Z" fill="#EBEBEB"/>
<path d="M344.945 223.239H351.934V199.917H344.945V223.239Z" fill="#EBEBEB"/>
<path d="M361.605 221.87L368.427 223.225L374.089 200.458L367.266 199.103L361.605 221.87Z" fill="#EBEBEB"/>
<path d="M353.937 223.239H357.432V195.044H353.937V223.239Z" fill="#EBEBEB"/>
<path d="M158.467 169.217H81.6051C79.6205 169.214 77.6546 169.561 75.82 170.237C73.9853 170.913 72.3178 171.906 70.9128 173.159C69.5078 174.411 68.3928 175.899 67.6317 177.537C66.8706 179.175 66.4782 180.931 66.4771 182.705V236.349H173.568V182.705C173.568 180.933 173.177 179.178 172.418 177.541C171.659 175.905 170.547 174.417 169.145 173.165C167.742 171.912 166.077 170.919 164.245 170.242C162.413 169.564 160.45 169.216 158.467 169.217Z" fill="#E6E6E6"/>
<path d="M196.296 208.973H182.542C180.16 208.973 177.875 209.818 176.19 211.324C174.506 212.83 173.559 214.872 173.559 217.001V261.356H205.252V216.993C205.25 214.869 204.306 212.833 202.628 211.33C200.949 209.827 198.672 208.979 196.296 208.973Z" fill="#E0E0E0"/>
<path d="M196.296 208.973H196C193.617 208.973 191.332 209.818 189.647 211.324C187.963 212.83 187.016 214.872 187.016 217.001V261.356H205.243V216.993C205.241 214.871 204.298 212.835 202.622 211.333C200.945 209.83 198.671 208.981 196.296 208.973Z" fill="#EBEBEB"/>
<path d="M183.199 240.973H77.7065V261.348H183.199V240.973Z" fill="#E6E6E6"/>
<path d="M183.342 222.339H81.605C76.5691 222.339 72.4868 225.988 72.4868 230.488V235.57C72.4868 240.07 76.5691 243.718 81.605 243.718H183.342C188.378 243.718 192.46 240.07 192.46 235.57V230.488C192.46 225.988 188.378 222.339 183.342 222.339Z" fill="#F5F5F5"/>
<path d="M94.3975 222.339H81.7759C76.74 222.339 72.6577 225.988 72.6577 230.488V235.57C72.6577 240.07 76.74 243.718 81.7759 243.718H94.3975C99.4333 243.718 103.516 240.07 103.516 235.57V230.488C103.516 225.988 99.4333 222.339 94.3975 222.339Z" fill="#E0E0E0"/>
<path d="M80.4103 208.973H66.6567C64.2742 208.973 61.9892 209.818 60.3045 211.324C58.6198 212.83 57.6733 214.872 57.6733 217.001V261.356H89.3847V216.993C89.3823 214.866 88.4361 212.828 86.7536 211.324C85.071 209.82 82.7897 208.975 80.4103 208.973Z" fill="#E0E0E0"/>
<path d="M80.4105 208.973H80.123C77.7405 208.973 75.4555 209.818 73.7708 211.324C72.0861 212.83 71.1396 214.872 71.1396 217.001V261.356H89.3849V216.993C89.3825 214.866 88.4363 212.828 86.7538 211.324C85.0712 209.82 82.7899 208.975 80.4105 208.973Z" fill="#F0F0F0"/>
<path d="M308.741 75.8901C318.843 75.8901 327.032 68.572 327.032 59.5448C327.032 50.5175 318.843 43.1995 308.741 43.1995C298.64 43.1995 290.451 50.5175 290.451 59.5448C290.451 68.572 298.64 75.8901 308.741 75.8901Z" fill="#E0E0E0"/>
<path d="M324.106 61.7766C325.482 54.2008 319.726 47.0625 311.248 45.8328C302.771 44.6031 294.784 49.7476 293.408 57.3234C292.032 64.8991 297.788 72.0374 306.265 73.2671C314.743 74.4969 322.73 69.3524 324.106 61.7766Z" fill="#F0F0F0"/>
<path d="M308.014 50.0073V59.7214L300.809 56.0766" fill="#F0F0F0"/>
<path d="M308.014 60.4197C307.877 60.4201 307.744 60.3868 307.627 60.3234L300.441 56.6866C300.272 56.5902 300.151 56.4395 300.103 56.2656C300.055 56.0918 300.083 55.9081 300.182 55.7525C300.282 55.5969 300.444 55.4813 300.636 55.4295C300.828 55.3778 301.034 55.3938 301.213 55.4744L307.25 58.5331V50.0072C307.271 49.8359 307.361 49.6775 307.505 49.5624C307.648 49.4472 307.834 49.3835 308.027 49.3835C308.22 49.3835 308.406 49.4472 308.549 49.5624C308.693 49.6775 308.784 49.8359 308.804 50.0072V59.7213C308.805 59.8432 308.77 59.9631 308.702 60.0689C308.634 60.1746 308.536 60.2624 308.418 60.3234C308.296 60.3897 308.156 60.4232 308.014 60.4197Z" fill="#E0E0E0"/>
<path d="M224.585 299.105C320.781 299.105 398.764 294.155 398.764 288.05C398.764 281.944 320.781 276.995 224.585 276.995C128.388 276.995 50.4058 281.944 50.4058 288.05C50.4058 294.155 128.388 299.105 224.585 299.105Z" fill="#F5F5F5"/>
<path d="M349.149 121.08H324.894C322.685 121.08 320.567 121.864 319.005 123.26C317.443 124.656 316.566 126.549 316.566 128.522V137.498C316.566 139.472 317.443 141.365 319.005 142.76C320.567 144.156 322.685 144.94 324.894 144.94H335.26L338.045 152.8L340.857 144.94H349.104C351.312 144.94 353.431 144.156 354.992 142.76C356.554 141.365 357.431 139.472 357.431 137.498V128.522C357.431 126.556 356.56 124.669 355.008 123.274C353.456 121.88 351.35 121.091 349.149 121.08Z" fill="#407BFF"/>
<path d="M327.606 132.464C327.606 132.761 327.508 133.052 327.323 133.298C327.139 133.545 326.876 133.738 326.569 133.851C326.262 133.965 325.925 133.995 325.599 133.937C325.273 133.879 324.974 133.736 324.739 133.526C324.504 133.316 324.344 133.048 324.279 132.757C324.214 132.466 324.247 132.164 324.374 131.89C324.502 131.616 324.717 131.381 324.993 131.216C325.269 131.051 325.594 130.963 325.926 130.963C326.147 130.963 326.366 131.002 326.569 131.077C326.773 131.153 326.958 131.263 327.114 131.403C327.27 131.542 327.394 131.708 327.479 131.89C327.563 132.072 327.606 132.267 327.606 132.464ZM333.338 130.963C333.006 130.963 332.681 131.051 332.404 131.216C332.128 131.381 331.913 131.616 331.786 131.89C331.659 132.164 331.625 132.466 331.69 132.757C331.755 133.048 331.915 133.316 332.15 133.526C332.385 133.736 332.684 133.879 333.01 133.937C333.336 133.995 333.674 133.965 333.981 133.851C334.288 133.738 334.55 133.545 334.735 133.298C334.919 133.052 335.018 132.761 335.018 132.464C335.008 132.072 334.827 131.698 334.513 131.424C334.199 131.149 333.777 130.995 333.338 130.995V130.963ZM340.749 130.963C340.417 130.963 340.092 131.051 339.816 131.216C339.54 131.381 339.324 131.616 339.197 131.89C339.07 132.164 339.037 132.466 339.101 132.757C339.166 133.048 339.326 133.316 339.561 133.526C339.796 133.736 340.095 133.879 340.421 133.937C340.747 133.995 341.085 133.965 341.392 133.851C341.699 133.738 341.961 133.545 342.146 133.298C342.33 133.052 342.429 132.761 342.429 132.464C342.42 132.072 342.238 131.698 341.924 131.424C341.61 131.149 341.188 130.995 340.749 130.995V130.963ZM348.16 130.963C347.828 130.963 347.503 131.051 347.227 131.216C346.951 131.381 346.736 131.616 346.608 131.89C346.481 132.164 346.448 132.466 346.513 132.757C346.578 133.048 346.738 133.316 346.973 133.526C347.207 133.736 347.507 133.879 347.833 133.937C348.159 133.995 348.496 133.965 348.803 133.851C349.11 133.738 349.373 133.545 349.557 133.298C349.742 133.052 349.84 132.761 349.84 132.464C349.831 132.072 349.65 131.698 349.336 131.424C349.022 131.149 348.6 130.995 348.16 130.995V130.963Z" fill="white"/>
<path d="M100.165 147.573H75.9546C74.861 147.573 73.7781 147.766 72.7677 148.14C71.7574 148.514 70.8393 149.062 70.0661 149.753C69.2928 150.444 68.6794 151.264 68.2609 152.167C67.8424 153.07 67.627 154.038 67.627 155.015V163.991C67.627 165.965 68.5043 167.857 70.0661 169.253C71.6278 170.649 73.7459 171.433 75.9546 171.433H86.3214L89.1063 179.284L91.9181 171.433H100.165C102.373 171.433 104.492 170.649 106.053 169.253C107.615 167.857 108.492 165.965 108.492 163.991V155.015C108.492 154.038 108.277 153.07 107.859 152.167C107.44 151.264 106.827 150.444 106.053 149.753C105.28 149.062 104.362 148.514 103.352 148.14C102.341 147.766 101.258 147.573 100.165 147.573Z" fill="#407BFF"/>
<path d="M78.6225 158.957C78.6225 159.254 78.524 159.544 78.3394 159.791C78.1548 160.038 77.8924 160.231 77.5855 160.344C77.2785 160.458 76.9407 160.488 76.6149 160.43C76.289 160.372 75.9897 160.229 75.7547 160.019C75.5198 159.809 75.3598 159.541 75.295 159.25C75.2302 158.959 75.2634 158.657 75.3906 158.383C75.5177 158.108 75.733 157.874 76.0093 157.709C76.2855 157.544 76.6103 157.456 76.9426 157.456C77.3881 157.456 77.8154 157.614 78.1305 157.896C78.4455 158.177 78.6225 158.559 78.6225 158.957ZM84.3539 157.456C84.0216 157.456 83.6968 157.544 83.4206 157.709C83.1443 157.874 82.929 158.108 82.8019 158.383C82.6747 158.657 82.6415 158.959 82.7063 159.25C82.7711 159.541 82.9311 159.809 83.166 160.019C83.401 160.229 83.7003 160.372 84.0262 160.43C84.352 160.488 84.6898 160.458 84.9968 160.344C85.3037 160.231 85.5661 160.038 85.7507 159.791C85.9353 159.544 86.0338 159.254 86.0338 158.957C86.0267 158.564 85.8463 158.189 85.5318 157.914C85.2172 157.639 84.794 157.486 84.3539 157.488V157.456ZM91.7652 157.456C91.4322 157.453 91.1057 157.538 90.827 157.701C90.5484 157.864 90.3303 158.097 90.2004 158.371C90.0705 158.645 90.0347 158.948 90.0974 159.24C90.1602 159.532 90.3188 159.801 90.553 160.013C90.7872 160.224 91.0865 160.369 91.4128 160.428C91.7392 160.488 92.0779 160.459 92.3859 160.346C92.6939 160.232 92.9573 160.04 93.1427 159.793C93.3281 159.546 93.4271 159.255 93.4271 158.957C93.4201 158.567 93.2422 158.194 92.9315 157.92C92.6208 157.645 92.2022 157.49 91.7652 157.488V157.456ZM99.1765 157.456C98.8442 157.456 98.5194 157.544 98.2432 157.709C97.9669 157.874 97.7516 158.108 97.6245 158.383C97.4973 158.657 97.4641 158.959 97.5289 159.25C97.5937 159.541 97.7537 159.809 97.9886 160.019C98.2236 160.229 98.5229 160.372 98.8488 160.43C99.1746 160.488 99.5124 160.458 99.8194 160.344C100.126 160.231 100.389 160.038 100.573 159.791C100.758 159.544 100.856 159.254 100.856 158.957C100.849 158.564 100.669 158.189 100.354 157.914C100.04 157.639 99.6166 157.486 99.1765 157.488V157.456Z" fill="white"/>
<path d="M371.014 289.174H256.997C235.697 289.174 234.332 266.759 251.84 256.21C255.041 254.308 258.585 252.912 262.315 252.084C296.982 243.935 345.69 189.159 379.997 212.079L380.096 212.144C414.269 235.225 390.382 289.174 371.014 289.174Z" fill="#263238"/>
<path opacity="0.5" d="M371.014 289.174H256.997C235.697 289.174 234.332 266.759 251.84 256.21C255.041 254.308 258.585 252.912 262.315 252.084C296.982 243.935 345.69 189.159 379.997 212.079L380.096 212.144C414.269 235.225 390.382 289.174 371.014 289.174Z" fill="white"/>
<path opacity="0.2" d="M379.908 212.039C377.033 211.871 373.548 212.593 369.793 215.403C360.046 222.709 374.868 257.88 351.556 272.507C338.548 280.672 282.429 284.269 263.699 274.258C249.873 266.864 249.694 262.215 251.841 256.21C255.041 254.308 258.585 252.912 262.315 252.084C296.937 243.895 345.645 189.119 379.908 212.039Z" fill="black"/>
<path d="M291.259 205.408L284.459 201.129L289.544 196.481C289.544 196.481 294.763 198.889 294.269 203.184L291.259 205.408Z" fill="#E4897B"/>
<path d="M281.792 196.409L286.508 193.759L289.544 196.481L284.46 201.129L281.792 196.409Z" fill="#E4897B"/>
<path d="M324.714 194.354C318.273 196.047 315.102 206.171 309.784 215.732L294.305 201.988L289.382 205.89C289.382 205.89 303.558 226.017 310.251 226.017C318.605 226.017 327.274 205.28 327.274 205.28L324.714 194.354Z" fill="#263238"/>
<path opacity="0.1" d="M327.274 205.28C327.274 205.28 325.899 208.563 323.68 212.505C321.569 216.343 318.695 220.814 315.595 223.52C313.844 225.037 312.002 226 310.205 226C303.513 226 289.337 205.874 289.337 205.874L294.26 201.972L309.738 215.716C315.056 206.155 318.219 196.031 324.678 194.337L327.274 205.28Z" fill="white"/>
<path opacity="0.2" d="M323.716 212.521C321.605 216.359 318.731 220.83 315.631 223.536C315.964 214.36 321.021 205.408 321.021 205.408C322.416 207.605 323.33 210.019 323.716 212.521Z" fill="black"/>
<path d="M318.551 250.277C318.551 250.277 263.887 243.261 260.995 253.978C257.949 265.314 301.842 272.957 328.074 273.76C354.305 274.563 361.833 268.943 357.62 240.042H321.687L318.551 250.277Z" fill="#407BFF"/>
<path opacity="0.6" d="M318.551 250.277C318.551 250.277 263.887 243.261 260.995 253.978C257.949 265.314 301.842 272.957 328.074 273.76C354.305 274.563 361.833 268.943 357.62 240.042H321.687L318.551 250.277Z" fill="white"/>
<path d="M288.106 272.628L276.653 272.636L271.155 272.644L270.499 267.466L275.584 266.856L288.008 265.378L288.106 272.628Z" fill="#E4897B"/>
<path d="M271.739 266.815L273.131 272.724C273.151 272.802 273.152 272.882 273.136 272.96C273.12 273.039 273.086 273.113 273.036 273.179C272.987 273.245 272.922 273.302 272.848 273.345C272.773 273.388 272.689 273.417 272.601 273.431L269.304 273.96C269.304 273.96 264.929 274.956 263.699 274.257C260.105 272.202 256.656 259.213 258.12 258.249C258.65 257.896 259.575 258.434 260.042 258.859C261.516 260.2 264.651 263.949 265.9 265.057C267.346 266.358 269.924 266.398 271.056 266.342C271.214 266.335 271.37 266.379 271.495 266.466C271.62 266.553 271.707 266.677 271.739 266.815Z" fill="#263238"/>
<path opacity="0.2" d="M288.106 272.628L276.653 272.636L275.583 266.856L288.008 265.378L288.106 272.628Z" fill="black"/>
<path d="M304.852 263.492L315.722 266.727L320.941 268.276L319.728 273.366L314.689 272.507L302.381 270.404L304.852 263.492Z" fill="#E4897B"/>
<path d="M318.327 273.631L319.09 267.634C319.101 267.556 319.13 267.48 319.174 267.411C319.218 267.342 319.276 267.282 319.346 267.233C319.416 267.185 319.497 267.149 319.582 267.128C319.668 267.108 319.757 267.102 319.845 267.112L323.16 267.546C323.16 267.546 327.651 267.835 328.55 268.846C331.245 271.809 329.915 285.111 328.19 285.609C327.553 285.794 326.87 285.023 326.573 284.493C325.675 282.799 324.004 278.352 323.214 276.955C322.315 275.309 319.863 274.546 318.776 274.273C318.628 274.231 318.502 274.143 318.419 274.026C318.337 273.908 318.304 273.768 318.327 273.631Z" fill="#263238"/>
<path opacity="0.2" d="M304.852 263.492L315.722 266.727L314.689 272.507L302.381 270.404L304.852 263.492Z" fill="black"/>
<path d="M312.802 273.406L309.703 273.671L311.553 264.086L315.111 265.764L312.802 273.406Z" fill="#407BFF"/>
<path opacity="0.6" d="M312.802 273.406L309.703 273.671L311.553 264.086L315.111 265.764L312.802 273.406Z" fill="white"/>
<path d="M323.178 276.883C323.258 277.317 323.186 277.763 322.971 278.159C322.884 278.278 322.764 278.374 322.622 278.437C322.48 278.501 322.321 278.529 322.163 278.52C322.067 278.524 321.972 278.505 321.887 278.466C321.802 278.426 321.729 278.368 321.678 278.296C321.211 277.589 322.307 275.414 322.441 275.173C322.45 275.146 322.469 275.123 322.496 275.108C322.522 275.093 322.554 275.087 322.585 275.092C322.619 275.095 322.652 275.107 322.677 275.128C322.703 275.148 322.721 275.175 322.729 275.205C322.942 275.749 323.092 276.311 323.178 276.883ZM321.884 277.926C321.89 277.997 321.915 278.066 321.956 278.127C321.973 278.158 322 278.183 322.034 278.199C322.068 278.215 322.107 278.221 322.145 278.215C322.254 278.227 322.364 278.21 322.463 278.168C322.561 278.125 322.644 278.058 322.702 277.975C322.964 277.211 322.916 276.39 322.567 275.654C322.189 276.369 321.957 277.139 321.884 277.926Z" fill="#407BFF"/>
<path d="M322.755 275.221V275.285C322.459 275.984 321.111 277.365 320.348 277.268C320.223 277.249 320.109 277.192 320.024 277.108C319.939 277.023 319.889 276.916 319.881 276.803C319.846 276.69 319.839 276.572 319.861 276.457C319.883 276.342 319.932 276.232 320.006 276.136C320.563 275.333 322.495 275.077 322.602 275.085C322.632 275.079 322.663 275.083 322.691 275.095C322.718 275.106 322.741 275.125 322.755 275.149C322.762 275.172 322.762 275.197 322.755 275.221ZM320.168 276.69V276.754C320.222 276.955 320.312 276.963 320.357 276.979C320.806 277.035 321.839 276.136 322.288 275.446C321.522 275.529 320.808 275.837 320.258 276.321C320.181 276.431 320.147 276.561 320.159 276.69H320.168Z" fill="#407BFF"/>
<path d="M277.695 266.109C277.695 266.109 328.55 248.447 344.127 251.401C359.704 254.356 359.776 261.637 351.88 268.429C343.983 275.221 332.188 272.604 332.188 272.604C332.188 272.604 341.459 267.642 340.812 264.576C340.165 261.509 334.272 268.517 334.272 268.517C334.272 268.517 303.54 275.237 278.162 273.463L277.695 266.109Z" fill="#407BFF"/>
<path d="M266.25 265.154C265.955 264.804 265.791 264.379 265.783 263.941C265.797 263.8 265.853 263.665 265.944 263.549C266.036 263.434 266.16 263.342 266.304 263.283C266.388 263.241 266.482 263.22 266.578 263.22C266.674 263.22 266.768 263.241 266.852 263.283C267.624 263.725 267.75 266.109 267.75 266.382C267.754 266.409 267.747 266.437 267.731 266.46C267.714 266.484 267.689 266.501 267.66 266.51C267.632 266.527 267.599 266.536 267.566 266.536C267.532 266.536 267.5 266.527 267.472 266.51C267.012 266.097 266.603 265.643 266.25 265.154ZM266.861 263.692C266.815 263.635 266.757 263.585 266.69 263.548C266.66 263.529 266.624 263.519 266.587 263.519C266.55 263.519 266.514 263.529 266.483 263.548C266.38 263.581 266.289 263.641 266.222 263.719C266.155 263.797 266.115 263.891 266.106 263.989C266.267 264.775 266.735 265.483 267.427 265.988C267.392 265.199 267.2 264.422 266.861 263.692Z" fill="#407BFF"/>
<path d="M267.472 266.454V266.382C267.382 265.643 267.858 263.861 268.595 263.628C268.716 263.594 268.847 263.598 268.966 263.639C269.085 263.68 269.186 263.755 269.251 263.853C269.42 264.031 269.504 264.262 269.484 264.495C269.394 265.435 267.813 266.454 267.687 266.502C267.662 266.518 267.632 266.526 267.602 266.526C267.572 266.526 267.542 266.518 267.517 266.502C267.498 266.49 267.482 266.473 267.472 266.454ZM269.017 264.086V264.03C268.873 263.877 268.783 263.909 268.738 263.917C268.307 264.046 267.84 265.266 267.84 266.069C268.28 265.74 269.134 265.049 269.188 264.463C269.197 264.333 269.159 264.204 269.08 264.094L269.017 264.086Z" fill="#407BFF"/>
<path opacity="0.7" d="M277.695 266.109C277.695 266.109 328.55 248.447 344.127 251.401C359.704 254.356 359.776 261.637 351.88 268.429C343.983 275.221 332.188 272.604 332.188 272.604C332.188 272.604 341.459 267.642 340.812 264.576C340.165 261.509 334.272 268.517 334.272 268.517C334.272 268.517 303.54 275.237 278.162 273.463L277.695 266.109Z" fill="white"/>
<path d="M277.075 265.972L279.931 264.8L281.575 274.362L277.605 273.784L277.075 265.972Z" fill="#407BFF"/>
<path opacity="0.6" d="M277.075 265.972L279.931 264.8L281.575 274.362L277.605 273.784L277.075 265.972Z" fill="white"/>
<path d="M361.231 195.887C355.742 223.182 357.737 240.844 357.737 240.844C357.737 240.844 332.197 240.531 321.704 240.001C316.108 206.917 324.714 194.345 324.714 194.345C327.458 193.854 330.233 193.513 333.023 193.326C333.607 193.285 334.209 193.261 334.82 193.237C339.77 193.234 344.716 193.484 349.634 193.984C350.532 194.072 351.511 194.185 352.428 194.305C357.108 194.939 361.231 195.887 361.231 195.887Z" fill="#263238"/>
<path opacity="0.1" d="M361.231 195.887C360.549 199.275 359.983 202.518 359.515 205.585C358.779 210.402 358.285 214.865 357.961 218.831C357.863 220.027 357.773 221.191 357.71 222.299C357.449 226.362 357.377 229.838 357.386 232.648C357.386 237.93 357.737 240.844 357.737 240.844C357.737 240.844 332.197 240.531 321.704 240.001C316.099 206.917 324.723 194.345 324.723 194.345C327.464 193.854 330.236 193.513 333.023 193.326C333.607 193.286 334.209 193.262 334.82 193.237C339.77 193.23 344.716 193.48 349.634 193.984C350.532 194.072 351.511 194.185 352.428 194.305C357.108 194.931 361.231 195.887 361.231 195.887Z" fill="white"/>
<path opacity="0.2" d="M338.423 226.016C344.968 225.322 351.425 224.08 357.71 222.307C357.45 226.37 357.378 229.846 357.387 232.656C345.196 233.659 340.22 231.564 340.22 231.564L338.423 226.016Z" fill="black"/>
<path opacity="0.2" d="M359.515 205.593C358.779 210.41 358.285 214.873 357.961 218.839C354.467 212.481 357.063 204.854 357.063 204.854L359.515 205.593Z" fill="black"/>
<path d="M339.806 237.224H321.228C320.867 237.218 320.521 237.093 320.259 236.872C319.996 236.65 319.836 236.349 319.809 236.027L317.222 213.99C317.204 213.842 317.221 213.693 317.273 213.551C317.325 213.41 317.409 213.28 317.521 213.17C317.634 213.06 317.77 212.972 317.923 212.913C318.076 212.854 318.241 212.824 318.407 212.826H336.985C337.339 212.832 337.678 212.954 337.938 213.169C338.197 213.383 338.36 213.675 338.395 213.99L340.992 236.027C341.015 236.178 341.002 236.331 340.953 236.476C340.903 236.622 340.82 236.756 340.707 236.869C340.594 236.983 340.455 237.074 340.3 237.135C340.144 237.196 339.976 237.226 339.806 237.224Z" fill="#263238"/>
<path opacity="0.6" d="M339.806 237.224H321.228C320.867 237.218 320.521 237.093 320.259 236.872C319.996 236.65 319.836 236.349 319.809 236.027L317.222 213.99C317.204 213.842 317.221 213.693 317.273 213.551C317.325 213.41 317.409 213.28 317.521 213.17C317.634 213.06 317.77 212.972 317.923 212.913C318.076 212.854 318.241 212.824 318.407 212.826H336.985C337.339 212.832 337.678 212.954 337.938 213.169C338.197 213.383 338.36 213.675 338.395 213.99L340.992 236.027C341.015 236.178 341.002 236.331 340.953 236.476C340.903 236.622 340.82 236.756 340.707 236.869C340.594 236.983 340.455 237.074 340.3 237.135C340.144 237.196 339.976 237.226 339.806 237.224Z" fill="white"/>
<path opacity="0.2" d="M339.033 237.224H321.228C320.867 237.218 320.521 237.093 320.259 236.872C319.996 236.65 319.836 236.349 319.809 236.027L317.222 213.99C317.204 213.842 317.221 213.693 317.273 213.551C317.325 213.41 317.409 213.28 317.521 213.17C317.634 213.06 317.77 212.972 317.923 212.913C318.076 212.854 318.241 212.824 318.407 212.826H336.212C336.566 212.832 336.905 212.954 337.165 213.169C337.425 213.383 337.588 213.675 337.623 213.99L340.219 236.027C340.242 236.178 340.229 236.331 340.18 236.476C340.131 236.622 340.047 236.756 339.934 236.869C339.822 236.983 339.683 237.074 339.527 237.135C339.372 237.196 339.203 237.226 339.033 237.224Z" fill="white"/>
<path d="M328.199 223.239C327.943 223.237 327.69 223.284 327.456 223.377C327.222 223.47 327.013 223.606 326.843 223.777C326.672 223.948 326.545 224.15 326.469 224.369C326.393 224.587 326.371 224.818 326.403 225.045C326.456 225.532 326.708 225.985 327.11 226.316C327.513 226.648 328.038 226.836 328.586 226.843C328.841 226.845 329.094 226.798 329.327 226.705C329.56 226.613 329.769 226.477 329.939 226.307C330.109 226.137 330.236 225.936 330.313 225.719C330.389 225.501 330.413 225.271 330.382 225.045C329.834 225.035 329.309 224.846 328.906 224.513C328.504 224.18 328.252 223.726 328.199 223.239Z" fill="#263238"/>
<path opacity="0.3" d="M332.224 214.609H322.405C322.164 214.606 321.928 214.542 321.725 214.426C321.522 214.31 321.359 214.145 321.255 213.95L320.671 212.858H333.625L333.284 213.95C333.217 214.151 333.076 214.326 332.883 214.446C332.691 214.565 332.458 214.623 332.224 214.609Z" fill="black"/>
<path d="M337.991 225.31L333.697 224.997L333.877 230.103L337.47 231.789L345.753 231.114L346.427 227.67C343.705 224.106 337.991 225.31 337.991 225.31Z" fill="#E4897B"/>
<path d="M361.232 195.887C365.642 197.075 371.895 219.971 370.898 225.029C369.901 230.087 359.022 232.254 345.196 231.973V226L361.232 221.818L358.537 212.987C358.537 212.987 356.309 206.492 357.306 201.948C357.853 199.604 359.23 197.479 361.232 195.887Z" fill="#263238"/>
<path opacity="0.1" d="M361.232 195.887C365.642 197.075 371.895 219.971 370.898 225.029C369.901 230.087 359.022 232.254 345.196 231.973V226L361.232 221.818L358.537 212.987C358.537 212.987 356.309 206.492 357.306 201.948C357.853 199.604 359.23 197.479 361.232 195.887Z" fill="white"/>
<path d="M347.496 193.727C345.259 195.814 341.746 197.565 336.114 197.38C331.793 197.227 331.191 194.803 331.946 193.47C334.569 192.989 335.755 191.969 336.123 190.668C336.491 189.368 335.979 187.618 335.225 185.996L342.51 180.513L343.741 179.582C343.741 179.895 343.696 180.224 343.678 180.569C343.593 181.842 343.593 183.118 343.678 184.39C343.92 187.979 344.873 191.873 347.496 193.727Z" fill="#E4897B"/>
<path opacity="0.2" d="M343.687 184.391C342.33 186.871 339.95 189.866 336.123 190.669C336.518 189.288 335.979 187.618 335.225 185.996L342.51 180.513C342.896 180.513 343.292 180.513 343.678 180.569C343.596 181.842 343.599 183.118 343.687 184.391Z" fill="black"/>
<path d="M326.996 169.611C325.927 171.794 325.792 176.483 329.511 175.319C333.23 174.155 328.792 165.862 326.996 169.611Z" fill="#263238"/>
<path d="M344.81 174.452C344.486 180.296 344.639 183.74 341.369 186.751C336.446 191.279 328.325 188.613 326.672 182.785C325.199 177.526 325.972 168.848 332.35 166.504C333.765 165.986 335.303 165.797 336.822 165.955C338.34 166.112 339.79 166.611 341.034 167.405C342.278 168.199 343.277 169.261 343.938 170.494C344.598 171.726 344.898 173.088 344.81 174.452Z" fill="#E4897B"/>
<path d="M334.892 176.105C334.892 176.579 334.623 176.972 334.272 176.972C333.922 176.972 333.635 176.587 333.626 176.105C333.617 175.624 333.904 175.246 334.246 175.246C334.587 175.246 334.883 175.632 334.892 176.105Z" fill="#263238"/>
<path d="M328.855 176.121C328.855 176.595 328.585 176.98 328.235 176.98C327.885 176.98 327.597 176.595 327.597 176.121C327.597 175.648 327.867 175.262 328.217 175.262C328.567 175.262 328.855 175.64 328.855 176.121Z" fill="#263238"/>
<path d="M330.777 176.354C330.142 177.765 329.289 179.089 328.244 180.288C328.615 180.506 329.033 180.652 329.471 180.717C329.908 180.782 330.357 180.764 330.786 180.665L330.777 176.354Z" fill="#DE5753"/>
<path d="M336.725 174.363C336.671 174.37 336.615 174.365 336.565 174.346C336.514 174.328 336.47 174.298 336.437 174.259C336.205 173.974 335.901 173.741 335.55 173.579C335.199 173.418 334.811 173.331 334.416 173.328C334.333 173.332 334.251 173.308 334.188 173.26C334.124 173.212 334.084 173.145 334.074 173.071C334.071 173.034 334.075 172.997 334.088 172.961C334.1 172.926 334.12 172.893 334.147 172.865C334.174 172.836 334.207 172.813 334.243 172.796C334.28 172.779 334.321 172.769 334.362 172.766C334.861 172.763 335.354 172.865 335.8 173.065C336.247 173.264 336.634 173.555 336.931 173.914C336.982 173.972 337.005 174.047 336.995 174.12C336.985 174.194 336.943 174.261 336.877 174.307C336.833 174.337 336.78 174.357 336.725 174.363Z" fill="#263238"/>
<path d="M326.232 174.275C326.173 174.29 326.111 174.29 326.052 174.275C326.015 174.259 325.982 174.236 325.954 174.208C325.927 174.181 325.906 174.148 325.893 174.113C325.879 174.078 325.874 174.041 325.877 174.004C325.879 173.967 325.89 173.931 325.909 173.898C326.108 173.489 326.414 173.13 326.802 172.851C327.19 172.571 327.648 172.379 328.137 172.292C328.178 172.288 328.22 172.291 328.26 172.301C328.3 172.311 328.337 172.328 328.37 172.351C328.403 172.374 328.43 172.403 328.45 172.436C328.47 172.468 328.482 172.504 328.487 172.541C328.493 172.577 328.492 172.614 328.482 172.649C328.472 172.684 328.455 172.717 328.43 172.746C328.406 172.776 328.376 172.8 328.341 172.819C328.305 172.837 328.267 172.849 328.226 172.854C327.841 172.919 327.479 173.068 327.173 173.288C326.868 173.508 326.628 173.792 326.475 174.114C326.451 174.156 326.417 174.193 326.375 174.221C326.333 174.249 326.284 174.267 326.232 174.275Z" fill="#263238"/>
<path d="M334.533 169.763C334.533 169.763 336.329 168.607 337.156 169.851C337.982 171.096 337.928 174.411 337.928 174.411L338.288 173.825C338.288 173.825 340.614 181.211 343.983 179.349C347.352 177.486 352.302 169.988 344.432 166.166C344.432 166.166 343.597 164.384 338.396 163.501C333.194 162.618 326.906 165.492 325.819 168.567C324.732 171.642 326.25 173.384 326.25 173.384C326.417 172.714 326.758 172.09 327.247 171.561C327.317 171.875 327.472 172.168 327.7 172.414C327.927 172.661 328.219 172.853 328.55 172.974C328.497 172.346 328.643 171.717 328.972 171.16C329.144 171.706 329.451 172.211 329.87 172.637C330.248 169.474 332.655 168.832 333.41 168.856C333.68 168.883 333.934 168.985 334.135 169.147C334.337 169.31 334.476 169.526 334.533 169.763Z" fill="#263238"/>
<path d="M347.406 179.293C347.165 179.988 346.773 180.634 346.252 181.193C345.731 181.753 345.091 182.215 344.369 182.552C342.429 183.443 341.01 181.974 341.171 180.144C341.315 178.482 342.492 176.017 344.621 175.897C345.087 175.878 345.55 175.962 345.971 176.142C346.391 176.322 346.755 176.592 347.031 176.928C347.307 177.264 347.485 177.656 347.55 178.068C347.616 178.481 347.566 178.901 347.406 179.293Z" fill="#E4897B"/>
<path d="M330.994 182.624C331.554 183.149 332.071 183.71 332.539 184.302L332.925 184.134C334.659 183.331 335.18 182.472 335.225 181.725C335.236 181.365 335.153 181.008 334.982 180.682C334.891 180.496 334.77 180.323 334.623 180.168C333.795 181.079 332.756 181.818 331.578 182.335C331.227 182.528 330.994 182.624 330.994 182.624Z" fill="#263238"/>
<path d="M331.577 182.351L332.053 182.833C333.679 182.095 334.748 181.372 334.982 180.698C334.89 180.512 334.769 180.339 334.623 180.184C333.795 181.095 332.756 181.834 331.577 182.351Z" fill="white"/>
<path d="M332.925 184.134C334.659 183.331 335.18 182.472 335.225 181.725C334.571 182.035 333.984 182.445 333.491 182.937C333.165 183.272 332.967 183.691 332.925 184.134Z" fill="#A24E3F"/>
<path d="M174.646 201.651L175.113 206.106C175.113 206.106 204.291 210.072 208.963 214.135C213.634 218.197 230.208 282.446 230.208 282.446L223.525 283.249C223.525 283.249 200.33 235.883 199.09 229.027C199.09 229.027 178.662 229.709 164.719 229.709C150.777 229.709 149.115 201.611 149.115 201.611L174.646 201.651Z" fill="#407BFF"/>
<path opacity="0.3" d="M230.209 282.454L223.525 283.257C223.525 283.257 214.039 263.885 206.879 248.126C202.827 239.238 199.53 231.499 199.09 229.027C199.09 229.027 184.95 229.492 172.14 229.653C169.553 229.653 167.028 229.701 164.684 229.701C150.742 229.701 149.08 201.603 149.08 201.603H174.61L175.078 206.058C175.078 206.058 204.265 210.016 208.927 214.086C213.589 218.157 230.209 282.454 230.209 282.454Z" fill="white"/>
<path d="M235.365 288.21C230.873 288.21 230.271 288.146 227.738 288.066C225.573 288.001 225.043 288.242 223.318 288.21C221.863 288.21 221.917 286.934 222.366 285.505C222.59 284.782 222.932 283.265 223.264 282.109L229.858 281.675C230.756 283.281 232.876 285.521 235.41 285.826C237.943 286.131 237.161 288.21 235.365 288.21Z" fill="#263238"/>
<path opacity="0.2" d="M206.879 248.158C202.827 239.271 199.53 231.532 199.09 229.059C199.09 229.059 184.95 229.525 172.14 229.685L170.756 207.857C170.756 207.857 188.795 210.169 200.923 219.506C202.459 220.662 205.45 238.54 206.879 248.158Z" fill="black"/>
<path d="M200.59 233.884H148.388V231.018C148.388 230.062 148.813 229.145 149.569 228.469C150.326 227.793 151.352 227.413 152.421 227.413H196.557C197.627 227.413 198.652 227.793 199.409 228.469C200.165 229.145 200.59 230.062 200.59 231.018V233.884Z" fill="#263238"/>
<path opacity="0.2" d="M200.59 233.884H148.388V231.018C148.388 230.062 148.813 229.145 149.569 228.469C150.326 227.793 151.352 227.413 152.421 227.413H196.557C197.627 227.413 198.652 227.793 199.409 228.469C200.165 229.145 200.59 230.062 200.59 231.018V233.884Z" fill="white"/>
<path d="M198.776 275.831L178.653 274.266V250.647H171.583V274.257L151.388 275.863C150.53 275.939 149.733 276.297 149.154 276.868C148.574 277.44 148.253 278.183 148.253 278.954V281.362H201.92V278.954C201.928 278.176 201.61 277.424 201.028 276.846C200.446 276.267 199.642 275.905 198.776 275.831Z" fill="#263238"/>
<path d="M154.757 284.293C154.757 285.11 154.486 285.91 153.978 286.59C153.469 287.27 152.747 287.8 151.901 288.112C151.056 288.425 150.126 288.507 149.228 288.348C148.331 288.188 147.506 287.794 146.859 287.216C146.212 286.638 145.772 285.901 145.593 285.099C145.415 284.297 145.506 283.466 145.857 282.71C146.207 281.955 146.8 281.309 147.561 280.855C148.321 280.401 149.216 280.158 150.131 280.158C151.358 280.158 152.535 280.594 153.402 281.369C154.27 282.145 154.757 283.196 154.757 284.293Z" fill="#263238"/>
<path d="M200.024 288.427C202.58 288.427 204.651 286.576 204.651 284.293C204.651 282.009 202.58 280.158 200.024 280.158C197.469 280.158 195.398 282.009 195.398 284.293C195.398 286.576 197.469 288.427 200.024 288.427Z" fill="#263238"/>
<path d="M170.361 232.343H179.875V252.485C179.875 253.275 179.524 254.033 178.899 254.591C178.274 255.15 177.426 255.464 176.542 255.464H173.703C172.819 255.464 171.972 255.15 171.346 254.591C170.721 254.033 170.37 253.275 170.37 252.485V232.343H170.361Z" fill="#263238"/>
<path opacity="0.2" d="M170.361 232.343H179.875V252.485C179.875 253.275 179.524 254.033 178.899 254.591C178.274 255.15 177.426 255.464 176.542 255.464H173.703C172.819 255.464 171.972 255.15 171.346 254.591C170.721 254.033 170.37 253.275 170.37 252.485V232.343H170.361Z" fill="white"/>
<path d="M148.02 234.631H200.95C201.848 234.631 202.576 233.98 202.576 233.178V232.848C202.576 232.046 201.848 231.395 200.95 231.395H148.02C147.122 231.395 146.394 232.046 146.394 232.848V233.178C146.394 233.98 147.122 234.631 148.02 234.631Z" fill="#263238"/>
<path opacity="0.2" d="M154.757 284.293C154.757 285.11 154.486 285.91 153.978 286.59C153.469 287.27 152.747 287.8 151.901 288.112C151.056 288.425 150.126 288.507 149.228 288.348C148.331 288.188 147.506 287.794 146.859 287.216C146.212 286.638 145.772 285.901 145.593 285.099C145.415 284.297 145.506 283.466 145.857 282.71C146.207 281.955 146.8 281.309 147.561 280.855C148.321 280.401 149.216 280.158 150.131 280.158C151.358 280.158 152.535 280.594 153.402 281.369C154.27 282.145 154.757 283.196 154.757 284.293Z" fill="white"/>
<path opacity="0.2" d="M200.024 288.427C202.58 288.427 204.651 286.576 204.651 284.293C204.651 282.009 202.58 280.158 200.024 280.158C197.469 280.158 195.398 282.009 195.398 284.293C195.398 286.576 197.469 288.427 200.024 288.427Z" fill="white"/>
<path d="M205.028 194.169H188.903C184.178 194.169 180.764 190.371 181.285 185.699L181.968 179.453C182.489 174.773 186.729 170.975 191.454 170.975H207.579C212.305 170.975 215.718 174.773 215.206 179.453L214.515 185.699C214.002 190.371 209.753 194.169 205.028 194.169Z" fill="#263238"/>
<path opacity="0.2" d="M205.028 194.169H188.903C184.178 194.169 180.764 190.371 181.285 185.699L181.968 179.453C182.489 174.773 186.729 170.975 191.454 170.975H207.579C212.305 170.975 215.718 174.773 215.206 179.453L214.515 185.699C214.002 190.371 209.753 194.169 205.028 194.169Z" fill="white"/>
<path d="M203.546 191.126H194.041C191.247 191.126 189.226 188.886 189.55 186.116L189.963 182.431C190.259 179.662 192.775 177.422 195.568 177.422H205.091C207.885 177.422 209.906 179.662 209.583 182.431L209.169 186.116C208.846 188.886 206.34 191.126 203.546 191.126Z" fill="#263238"/>
<path d="M195.982 185.619C195.982 185.619 193.808 224.676 184.394 231.379H194.464C194.464 231.379 203.447 218.076 204.103 185.619H195.982Z" fill="#263238"/>
<path d="M204.085 169.346L205.819 168.543C206.144 168.394 206.504 168.317 206.87 168.317C207.235 168.317 207.595 168.394 207.921 168.543L211.029 169.908C211.641 170.177 212.172 170.573 212.577 171.063C212.982 171.554 213.249 172.124 213.356 172.726L213.5 173.488C210.724 175.046 206.448 174.901 206.448 174.901L205.217 174.989C204.966 175.013 204.712 174.991 204.471 174.926C204.229 174.861 204.004 174.753 203.809 174.61C203.615 174.467 203.454 174.29 203.336 174.091C203.218 173.891 203.146 173.673 203.124 173.448L202.908 171.28C202.867 170.89 202.957 170.497 203.167 170.153C203.376 169.808 203.696 169.527 204.085 169.346Z" fill="#B97964"/>
<path opacity="0.2" d="M204.085 169.346L205.819 168.543C206.144 168.394 206.504 168.317 206.87 168.317C207.235 168.317 207.595 168.394 207.921 168.543L211.029 169.908C211.641 170.177 212.172 170.573 212.577 171.063C212.982 171.554 213.249 172.124 213.356 172.726L213.5 173.488C210.724 175.046 206.448 174.901 206.448 174.901L205.217 174.989C204.966 175.013 204.712 174.991 204.471 174.926C204.229 174.861 204.004 174.753 203.809 174.61C203.615 174.467 203.454 174.29 203.336 174.091C203.218 173.891 203.146 173.673 203.124 173.448L202.908 171.28C202.867 170.89 202.957 170.497 203.167 170.153C203.376 169.808 203.696 169.527 204.085 169.346Z" fill="black"/>
<path d="M191.346 171.256L185.058 178.361H179.075L179.856 168.447C184.384 169.225 191.346 171.256 191.346 171.256Z" fill="#407BFF"/>
<path opacity="0.2" d="M184.528 178.361H179.354L182.57 171.256C182.57 171.256 184.411 173.753 184.528 178.361Z" fill="black"/>
<path d="M175.032 204.332L148.702 202.149C149.529 199.644 150.256 197.187 150.867 194.819C151.64 191.921 152.251 189.143 152.736 186.55C153.221 183.957 153.634 181.548 153.921 179.365L154.002 178.747C154.002 178.401 154.092 178.064 154.128 177.743C154.389 175.632 154.55 173.793 154.658 172.276C154.883 169.314 154.883 167.604 154.883 167.604C163.904 166.06 173.214 166.554 181.968 169.041C185.884 178.899 175.032 204.332 175.032 204.332Z" fill="#407BFF"/>
<path d="M174.943 170.614C174.543 171.355 173.931 171.988 173.17 172.449C172.409 172.911 171.524 173.185 170.607 173.244C169.689 173.303 168.77 173.144 167.943 172.783C167.116 172.423 166.41 171.874 165.896 171.192L164.755 169.675L163.354 167.788C165.708 166.544 166.633 162.562 166.947 159.142C167.046 158.066 167.082 157.055 167.082 156.196L172.993 163.421C172.58 164.186 172.278 164.995 172.095 165.829C172.02 166.173 171.99 166.523 172.005 166.873C172.014 168.278 172.796 169.578 174.943 170.614Z" fill="#B97964"/>
<path opacity="0.2" d="M172.975 163.461C172.562 164.226 172.26 165.036 172.077 165.869C170.523 167.652 168.106 169.538 164.773 169.659L163.354 167.788C165.708 166.544 166.633 162.562 166.947 159.142C167.046 158.066 167.082 157.055 167.082 156.196L172.975 163.461Z" fill="black"/>
<path d="M158.772 151.395C158.772 151.395 155.853 150.415 156.715 148.609C157.577 146.803 158.619 146.819 158.619 146.819C158.178 146.08 157.938 145.259 157.92 144.422C157.901 143.585 158.104 142.756 158.512 142.002C159.958 139.593 163.156 140.573 163.156 140.573C163.169 139.816 163.469 139.086 164.008 138.503C164.547 137.919 165.292 137.517 166.121 137.362C166.966 137.237 167.835 137.362 168.594 137.718C169.353 138.075 169.961 138.643 170.325 139.337C170.325 139.337 172.337 137 175.284 137.643C178.23 138.285 178.823 141.954 178.823 141.954C179.628 141.719 180.503 141.771 181.266 142.099C182.029 142.426 182.621 143.004 182.92 143.712C183.32 144.451 183.488 145.274 183.404 146.091C183.32 146.909 182.988 147.691 182.443 148.352C182.443 148.352 184.321 147.549 184.941 150.255C185.561 152.96 182.399 155.337 182.399 155.337C182.399 155.337 184.105 155.521 183.225 157.52C182.345 159.519 179.569 159.551 179.569 159.551C179.569 159.551 180.647 160.041 178.608 161.687C176.568 163.333 170.001 160.98 170.001 160.98L158.772 151.395Z" fill="#263238"/>
<path d="M166.804 147.108C160.516 147.397 158.719 150.496 158.566 156.3C158.414 163.525 160.507 168.591 168.259 166.68C178.77 164.087 177.225 146.618 166.804 147.108Z" fill="#B97964"/>
<path d="M162.6 155.794C162.147 156.655 161.58 157.463 160.911 158.203C161.109 158.426 161.372 158.597 161.672 158.696C161.971 158.795 162.295 158.819 162.609 158.765L162.6 155.794Z" fill="#A24E3F"/>
<path d="M166.417 155.152C166.417 155.617 166.723 155.955 167.064 155.955C167.406 155.955 167.675 155.569 167.666 155.104C167.657 154.638 167.361 154.301 167.01 154.301C166.66 154.301 166.399 154.694 166.417 155.152Z" fill="#263238"/>
<path d="M167.154 154.325L166.022 153.956C166.022 153.956 166.606 154.791 167.154 154.325Z" fill="#263238"/>
<path d="M159.994 155.224C159.994 155.69 160.3 156.027 160.65 156.027C161 156.027 161.261 155.641 161.243 155.176C161.225 154.71 160.938 154.373 160.596 154.373C160.255 154.373 159.985 154.766 159.994 155.224Z" fill="#263238"/>
<path d="M160.74 154.389L159.599 154.028C159.599 154.028 160.192 154.855 160.74 154.389Z" fill="#263238"/>
<path d="M169.023 152.238C168.985 152.238 168.948 152.231 168.914 152.217C168.88 152.204 168.849 152.183 168.825 152.157C168.486 151.887 168.083 151.689 167.646 151.577C167.208 151.466 166.749 151.445 166.301 151.515C166.266 151.521 166.23 151.52 166.196 151.514C166.161 151.507 166.128 151.495 166.099 151.477C166.07 151.459 166.045 151.436 166.026 151.41C166.006 151.383 165.993 151.353 165.987 151.322C165.976 151.261 165.993 151.198 166.033 151.147C166.073 151.096 166.134 151.061 166.202 151.049C166.74 150.961 167.294 150.988 167.819 151.128C168.343 151.267 168.824 151.516 169.221 151.852C169.27 151.897 169.298 151.958 169.298 152.021C169.298 152.084 169.27 152.144 169.221 152.189C169.164 152.227 169.093 152.245 169.023 152.238Z" fill="#263238"/>
<path d="M159.204 152.069C159.163 152.069 159.123 152.061 159.086 152.046C159.048 152.031 159.015 152.008 158.988 151.981C158.946 151.93 158.927 151.866 158.937 151.802C158.947 151.739 158.985 151.682 159.042 151.644C159.411 151.367 159.845 151.168 160.311 151.061C160.778 150.954 161.265 150.942 161.737 151.026C161.772 151.035 161.804 151.05 161.832 151.07C161.859 151.091 161.882 151.116 161.899 151.144C161.916 151.173 161.926 151.204 161.929 151.236C161.932 151.268 161.928 151.3 161.917 151.331C161.894 151.39 161.847 151.438 161.785 151.467C161.723 151.495 161.651 151.501 161.585 151.483C161.19 151.42 160.784 151.436 160.397 151.53C160.01 151.625 159.652 151.795 159.348 152.029C159.305 152.054 159.255 152.068 159.204 152.069Z" fill="#263238"/>
<path d="M174.215 156.236C174.215 156.236 171.008 151.764 171.25 148.208C171.25 148.208 158.548 144.25 158.593 155.553C158.593 155.553 156.796 145.598 167.576 144.868C178.356 144.137 179.129 158.243 173.802 162.706C173.793 162.69 176.2 159.03 174.215 156.236Z" fill="#263238"/>
<path d="M173.263 157.472C173.271 157.148 173.351 156.828 173.497 156.531C173.644 156.234 173.855 155.966 174.118 155.743C174.381 155.519 174.691 155.344 175.029 155.227C175.368 155.111 175.73 155.055 176.092 155.064C178.051 155.168 179.183 158.692 174.395 159.776C173.712 159.945 173.281 159.359 173.263 157.472Z" fill="#B97964"/>
<path d="M164.118 162.032C163.938 162.044 163.758 162.044 163.579 162.032C163.544 162.026 163.511 162.014 163.481 161.997C163.451 161.98 163.426 161.958 163.406 161.931C163.386 161.905 163.372 161.876 163.364 161.845C163.357 161.814 163.356 161.782 163.363 161.751C163.368 161.72 163.381 161.691 163.399 161.664C163.417 161.638 163.442 161.615 163.47 161.597C163.499 161.579 163.531 161.566 163.565 161.56C163.599 161.553 163.634 161.553 163.668 161.558C164.345 161.665 165.042 161.564 165.647 161.273C166.252 160.981 166.729 160.516 167.001 159.953C167.014 159.923 167.034 159.896 167.058 159.873C167.083 159.851 167.112 159.832 167.145 159.82C167.177 159.807 167.212 159.8 167.248 159.8C167.283 159.799 167.319 159.805 167.352 159.816C167.385 159.828 167.415 159.845 167.44 159.867C167.466 159.889 167.486 159.915 167.501 159.945C167.515 159.974 167.522 160.005 167.523 160.037C167.524 160.068 167.517 160.1 167.504 160.129C167.229 160.72 166.755 161.22 166.149 161.561C165.542 161.902 164.833 162.066 164.118 162.032Z" fill="#263238"/>
<path d="M176.524 154.188C175.024 147.228 163.507 141.383 159.186 149.476C159.91 147.448 161.312 145.666 163.202 144.37C163.202 144.37 174.88 141.391 176.937 153.281L176.524 154.188Z" fill="#407BFF"/>
<path d="M170.388 288.21C165.896 288.21 165.295 288.146 162.761 288.066C160.596 288.001 160.066 288.242 158.341 288.21C156.886 288.21 156.94 286.934 157.389 285.505C157.614 284.782 157.955 283.265 158.288 282.109L164.881 281.675C165.78 283.281 167.9 285.521 170.433 285.826C172.966 286.131 172.176 288.21 170.388 288.21Z" fill="#263238"/>
<path d="M149.124 201.651C149.124 201.651 140.141 213.589 145.01 223.399C149.879 233.21 174.503 228.778 174.503 228.778L158.279 282.133L166.04 283.281C166.04 283.281 193.556 230.4 194.257 221.384C194.958 212.368 165.25 206.58 165.25 206.58L149.124 201.651Z" fill="#407BFF"/>
<path opacity="0.3" d="M149.124 201.651C149.124 201.651 140.141 213.589 145.01 223.399C149.879 233.21 174.503 228.778 174.503 228.778L158.279 282.133L166.04 283.281C166.04 283.281 193.556 230.4 194.257 221.384C194.958 212.368 165.25 206.58 165.25 206.58L149.124 201.651Z" fill="white"/>
<path opacity="0.2" d="M176.524 174.211C176.524 174.211 163.947 182.126 154.002 178.722C154.002 178.377 154.092 178.04 154.128 177.719C154.389 175.607 154.55 173.769 154.658 172.252C157.881 170.936 161.227 169.875 164.657 169.081C168.188 171.484 172.223 173.229 176.524 174.211Z" fill="black"/>
<path d="M159.006 167.62C164.54 170.028 170.253 173.023 176.281 174.122C179.748 173.922 183.629 172.661 187.115 171.81L197.562 168.984C198.01 168.859 198.494 168.886 198.92 169.062C199.346 169.238 199.683 169.549 199.866 169.935C200.049 170.321 200.064 170.755 199.909 171.15C199.754 171.546 199.439 171.876 199.027 172.075C195.766 173.681 192.478 175.158 189.073 176.507C184.869 178.048 180.988 179.846 176.245 180.232C174.543 180.214 172.851 179.993 171.214 179.574C165.691 178.126 160.374 176.113 155.367 173.576C154.571 173.111 153.999 172.395 153.765 171.57C153.531 170.745 153.651 169.872 154.103 169.123C154.555 168.374 155.305 167.804 156.204 167.526C157.104 167.247 158.088 167.281 158.961 167.62H159.006Z" fill="#B97864"/>
<path d="M156.033 166.728C151.191 167.756 151.029 175.182 155.476 178.666L166.256 170.534C166.256 170.534 161.773 165.508 156.033 166.728Z" fill="#407BFF"/>
<path d="M197.842 169.025L203.816 168.896L201.121 174.299C201.121 174.299 195.731 174.131 195.991 171.674L197.842 169.025Z" fill="#B97964"/>
<path d="M208.945 171.538L204.848 175.479L201.102 174.299L203.815 168.896L208.945 171.538Z" fill="#B97964"/>
<path d="M289.158 234.028C293.335 241.751 297.36 249.474 300.082 257.743C301.33 263.363 301.564 269.079 302.031 274.659C302.354 279.275 302.543 283.883 302.615 288.515L297.988 288.949C296.524 282.438 295.15 275.173 293.874 268.606C293.263 265.635 292.796 262.713 291.961 259.855C288.78 252.493 284.37 244.914 280.713 237.673L289.158 234.028Z" fill="#DC897C"/>
<path d="M296.057 244.136L288.736 247.267L284.19 249.233L281.432 243.309L278.548 237.103L280.983 225.791C288.457 228.714 296.057 244.136 296.057 244.136Z" fill="#407BFF"/>
<path opacity="0.2" d="M288.735 247.267L284.19 249.234L281.432 243.309C281.998 239.953 282.474 237.103 282.474 237.103C282.474 237.103 287.792 241.366 288.735 247.267Z" fill="black"/>
<path d="M266.807 205.28C266.888 205.761 267.238 206.082 267.589 206.082C267.939 206.082 268.155 205.609 268.074 205.127C267.993 204.645 267.634 204.324 267.283 204.324C266.933 204.324 266.672 204.806 266.807 205.28Z" fill="#263238"/>
<path d="M267.139 206.114C268.03 207.489 269.127 208.747 270.4 209.855C270.077 210.143 269.688 210.363 269.26 210.502C268.831 210.641 268.374 210.694 267.921 210.658L267.139 206.114Z" fill="#DE5753"/>
<path d="M264.337 202.895C264.256 202.893 264.18 202.864 264.121 202.815C264.063 202.761 264.03 202.689 264.03 202.614C264.03 202.539 264.063 202.467 264.121 202.414C264.473 202.091 264.906 201.85 265.385 201.71C265.864 201.57 266.373 201.536 266.87 201.611C266.911 201.618 266.95 201.633 266.984 201.654C267.018 201.675 267.048 201.703 267.07 201.734C267.093 201.765 267.108 201.8 267.115 201.837C267.123 201.874 267.122 201.912 267.112 201.948C267.104 201.984 267.087 202.019 267.064 202.05C267.04 202.081 267.01 202.107 266.975 202.127C266.94 202.147 266.9 202.161 266.859 202.167C266.818 202.174 266.776 202.173 266.735 202.165C266.34 202.114 265.938 202.149 265.561 202.267C265.184 202.384 264.845 202.58 264.57 202.839C264.537 202.862 264.5 202.878 264.46 202.888C264.42 202.898 264.378 202.9 264.337 202.895Z" fill="#263238"/>
<path d="M268.478 212.537C268.306 214.475 267.381 216.298 265.864 217.691C264.861 218.611 263.63 219.307 262.27 219.722C260.969 220.126 259.576 220.234 258.216 220.036C256.856 219.838 255.573 219.342 254.482 218.59C250.637 216.037 250.134 212.561 248.715 206.741C248.365 205.391 248.408 203.984 248.838 202.654C249.268 201.323 250.072 200.113 251.172 199.138C252.273 198.163 253.635 197.456 255.127 197.084C256.62 196.711 258.195 196.686 259.701 197.01C266.565 198.464 268.972 207.062 268.478 212.537Z" fill="#E4897B"/>
<path d="M251.185 216.238C253.88 217.755 264.067 213.492 262.387 206.323C262.387 206.323 266.403 202.398 266.205 197.878C266.008 193.358 262.612 191.455 258.911 192.306C255.623 193.021 255.632 194.618 255.632 194.618C255.632 194.618 240.216 195.59 243.199 201.298C236.641 207.126 247.87 214.351 251.185 216.238Z" fill="#263238"/>
<path d="M259.62 207.439C259.984 208.885 260.872 210.183 262.145 211.132C263.825 212.368 265.19 211.277 265.163 209.526C265.163 207.921 264.265 205.376 262.315 204.822C260.366 204.268 259.243 205.697 259.62 207.439Z" fill="#E4897B"/>
<path opacity="0.2" d="M268.011 214.56C267.562 215.732 266.829 216.802 265.863 217.691C264.861 218.611 263.63 219.307 262.27 219.722C261.357 219.309 260.48 218.834 259.647 218.301L261.012 215.307C261.012 215.307 265.199 217.137 268.011 214.56Z" fill="black"/>
<path d="M253.376 223.584L252.227 216.543C252.227 216.543 257.356 213.332 262.728 215.491L270.813 224.202L253.376 223.584Z" fill="#E4897B"/>
<path d="M271.748 223.335L269.87 220.822C269.87 220.822 256.252 216.318 250.313 222.09C250.313 222.09 263.6 228.368 271.748 223.335Z" fill="#407BFF"/>
<path opacity="0.2" d="M271.748 223.335L269.87 220.822C269.87 220.822 256.252 216.318 250.313 222.09C250.313 222.09 263.6 228.368 271.748 223.335Z" fill="black"/>
<path d="M219.456 291.598L214.326 288.644L216.294 286.018L221.639 278.889L226.777 281.844L220.866 289.719L219.456 291.598Z" fill="#E4897B"/>
<path d="M214.703 288.266L221.89 288.202C222.006 288.204 222.119 288.241 222.21 288.306C222.301 288.372 222.365 288.462 222.393 288.563L223.597 293.228C223.641 293.428 223.597 293.637 223.475 293.81C223.354 293.983 223.162 294.108 222.941 294.159H222.752C220.435 294.159 218.755 294.031 215.853 294.055C214.056 294.055 208.666 294.287 206.205 294.304C203.743 294.32 203.384 292.152 204.408 291.943C208.9 291.02 212.332 289.768 213.769 288.588C214.026 288.382 214.358 288.268 214.703 288.266Z" fill="#263238"/>
<path d="M216.087 284.244L225.484 286.508L276.491 251.923L250.323 246.801C248.453 246.444 246.507 246.603 244.742 247.259C242.977 247.914 241.477 249.034 240.441 250.47L216.087 284.244Z" fill="#263238"/>
<path opacity="0.2" d="M216.087 284.244L225.484 286.508L276.491 251.923L250.323 246.801C248.453 246.444 246.507 246.603 244.742 247.259C242.977 247.914 241.477 249.034 240.441 250.47L216.087 284.244Z" fill="black"/>
<path d="M188.202 291.767L182.902 289.061L184.716 286.348L189.63 278.978L194.931 281.684L189.496 289.824L188.202 291.767Z" fill="#E4897B"/>
<path d="M183.109 288.154H190.295C190.412 288.155 190.526 288.191 190.617 288.257C190.708 288.322 190.772 288.413 190.798 288.515L191.957 293.196C191.998 293.397 191.951 293.605 191.826 293.777C191.7 293.949 191.506 294.071 191.283 294.119H191.095C188.786 294.119 187.097 293.958 184.195 293.958C182.399 293.958 177.009 294.127 174.547 294.127C172.086 294.127 171.754 291.943 172.751 291.719C177.242 290.835 180.701 289.615 182.156 288.451C182.424 288.253 182.762 288.148 183.109 288.154Z" fill="#263238"/>
<path d="M288.798 270.083L253.134 270.163C252.236 267.337 251.104 257.503 247.619 245.34C246.675 242.04 245.552 238.572 244.232 235.016C243.135 231.799 241.803 228.651 240.243 225.591C243.47 223.848 247.016 222.627 250.718 221.986C266.502 219.578 280.983 225.791 280.983 225.791C280.983 225.791 287.244 241.366 288.798 270.083Z" fill="#407BFF"/>
<path opacity="0.2" d="M247.618 245.34C246.675 242.04 245.552 238.572 244.231 235.016L246.72 234.117C246.72 234.117 250.637 242.008 247.618 245.34Z" fill="black"/>
<path d="M232.014 250.799L236.155 252.549L237.736 246.319C237.736 246.319 234.431 245.284 231.951 246.793L232.014 250.799Z" fill="#E4897B"/>
<path d="M242.094 254.661L242.282 248.985L237.737 246.32L236.156 252.549L242.094 254.661Z" fill="#E4897B"/>
<path d="M244.923 235.345C238.033 238.677 230.164 241.768 224.172 246.127C224.037 246.231 224.082 246.279 224.235 245.814C224.263 245.517 224.22 245.219 224.109 244.939C224.01 244.633 223.789 244.371 223.489 244.2C223.372 244.16 223.444 244.256 223.606 244.353C223.83 244.478 224.068 244.583 224.315 244.666C227.082 245.605 230.918 245.918 234.018 246.271L234.485 250.406C233.505 250.655 232.589 250.823 231.628 250.984C228.035 251.538 224.306 251.931 220.524 250.815C218.899 250.379 217.528 249.393 216.701 248.069C215.874 246.744 215.657 245.184 216.096 243.718C217.946 237.85 234.691 230.528 240.836 227.807L244.923 235.353V235.345Z" fill="#DC897C"/>
<path d="M251.454 263.379L249.855 267.04C249.855 267.04 230.748 245.942 220.21 244.738C209.673 243.534 185.175 283.626 185.175 283.626L194.464 286.139L220.605 264.945C231.385 281.756 244.277 294.087 259.602 294.087H274.569C291.305 294.087 291.493 277.404 288.187 263.259L251.454 263.379Z" fill="#263238"/>
<path d="M240.243 225.591C234.251 227.55 227.208 233.491 227.208 233.491C227.208 233.491 233.137 242.675 233.73 242.321C234.323 241.968 246.486 238.853 246.486 238.853C246.486 238.853 248.966 235.979 247.061 231.114C246.566 229.74 245.675 228.507 244.479 227.538C243.282 226.568 241.821 225.897 240.243 225.591Z" fill="#407BFF"/>
<path d="M300.414 285.746L306.927 286.035L303.486 291.719C303.486 291.719 297.692 291.149 298.15 288.507L300.414 285.746Z" fill="#E4897B"/>
<path d="M312.263 289.278L307.457 293.268L303.486 291.719L306.927 286.035L312.263 289.278Z" fill="#E4897B"/>
<path d="M98.5656 228.176C102.932 232.109 107.235 236.517 112.463 239.495C112.463 239.495 112.786 239.648 112.813 239.672C112.673 239.625 112.523 239.603 112.373 239.608C112.238 239.608 112.454 239.608 112.687 239.608C118.652 238.098 124.195 234.622 129.684 231.949C130.109 231.72 130.613 231.639 131.101 231.721C131.588 231.803 132.025 232.042 132.328 232.393C132.631 232.744 132.778 233.182 132.743 233.625C132.708 234.067 132.492 234.482 132.137 234.791C127.86 238.331 116.335 247.796 110.28 245.813C106.579 244.601 103.488 242.321 100.578 240.13C97.7348 237.927 95.055 235.562 92.5557 233.049C89.133 229.412 94.8465 224.78 98.5656 228.184V228.176Z" fill="#E9B376"/>
<path d="M106.076 233.731C105.312 238.837 100.686 243.847 100.686 243.847L99.7156 243.253L94.9904 240.451C94.9904 240.451 94.9005 240.21 94.7658 239.784C94.631 239.359 94.4604 238.861 94.2537 238.179C93.1667 234.775 91.2084 228.409 90.9658 225.767C96.832 225.647 99.4731 228.144 106.076 233.731Z" fill="#407BFF"/>
<path opacity="0.7" d="M106.076 233.731C105.312 238.837 100.686 243.847 100.686 243.847L99.7156 243.253L94.9904 240.451C94.9904 240.451 94.9005 240.21 94.7658 239.784C94.631 239.359 94.4604 238.861 94.2537 238.179C93.1667 234.775 91.2084 228.409 90.9658 225.767C96.832 225.647 99.4731 228.144 106.076 233.731Z" fill="white"/>
<path opacity="0.2" d="M99.7155 243.253L94.9902 240.451C94.9902 240.451 94.9004 240.21 94.7656 239.784C94.9409 238.492 95.2049 237.21 95.5562 235.947C96.8011 236.822 97.818 237.929 98.5362 239.19C99.2544 240.452 99.6568 241.838 99.7155 243.253Z" fill="black"/>
<path d="M93.9662 258.907L97.9998 265.218C108.78 262.97 143.438 258.249 147.687 268.87C152.978 282.061 114.772 292.586 93.6339 293.228C72.4959 293.87 54.053 289.374 67.4203 261.83L93.9662 258.907Z" fill="#263238"/>
<path opacity="0.2" d="M93.9662 258.907L97.9998 265.218C108.78 262.97 143.438 258.249 147.687 268.87C152.978 282.061 114.772 292.586 93.6339 293.228C72.4959 293.87 54.053 289.374 67.4203 261.83L93.9662 258.907Z" fill="black"/>
<path d="M141.569 287.52C141.545 287.534 141.517 287.541 141.489 287.541C141.46 287.541 141.432 287.534 141.408 287.52C141.395 287.502 141.388 287.481 141.388 287.46C141.388 287.438 141.395 287.418 141.408 287.4C141.48 287.191 142.18 285.377 142.89 285.184C142.965 285.168 143.042 285.169 143.116 285.187C143.19 285.205 143.258 285.24 143.312 285.288C143.41 285.362 143.484 285.457 143.528 285.564C143.572 285.671 143.585 285.786 143.564 285.898C143.448 286.24 143.215 286.54 142.899 286.757C142.486 287.052 142.041 287.307 141.569 287.52ZM141.749 287.175C142.409 286.918 142.943 286.456 143.249 285.874C143.269 285.799 143.264 285.719 143.233 285.646C143.203 285.574 143.149 285.51 143.079 285.465C143.059 285.443 143.032 285.426 143.001 285.418C142.971 285.409 142.939 285.409 142.908 285.417C142.848 285.436 142.793 285.466 142.746 285.505C142.303 286.003 141.965 286.569 141.749 287.175Z" fill="#263238"/>
<path d="M141.524 287.544C141.507 287.557 141.485 287.564 141.462 287.564C141.439 287.564 141.416 287.557 141.399 287.544C141.327 287.496 140.357 286.396 140.5 285.649C140.518 285.557 140.556 285.468 140.613 285.39C140.67 285.311 140.745 285.244 140.833 285.192C140.909 285.13 141.005 285.093 141.107 285.084C141.209 285.075 141.311 285.096 141.399 285.144C141.911 285.473 141.848 286.942 141.596 287.504V287.56L141.524 287.544ZM140.976 285.393C140.887 285.457 140.826 285.548 140.806 285.649C140.833 286.206 141.063 286.739 141.462 287.167C141.614 286.541 141.569 285.505 141.264 285.32C141.264 285.32 141.174 285.256 141.021 285.32V285.36L140.976 285.393Z" fill="#263238"/>
<path d="M104.405 290.619C104.418 290.599 104.439 290.583 104.463 290.573C104.487 290.563 104.513 290.559 104.539 290.563C104.564 290.564 104.587 290.573 104.604 290.587C104.622 290.602 104.634 290.622 104.638 290.643C104.692 290.86 105.06 292.754 104.548 293.228C104.491 293.274 104.421 293.306 104.345 293.32C104.269 293.334 104.191 293.33 104.117 293.308C103.991 293.29 103.873 293.24 103.776 293.165C103.679 293.09 103.607 292.992 103.569 292.883C103.48 292.538 103.521 292.177 103.686 291.855C103.877 291.422 104.118 291.007 104.405 290.619ZM104.405 291.004C103.967 291.513 103.748 292.145 103.785 292.786C103.81 292.864 103.86 292.932 103.928 292.984C103.997 293.035 104.082 293.067 104.171 293.075C104.196 293.091 104.226 293.099 104.256 293.099C104.287 293.099 104.317 293.091 104.342 293.075C104.382 293.033 104.413 292.984 104.432 292.931C104.566 292.294 104.566 291.641 104.432 291.004H104.405Z" fill="#263238"/>
<path d="M118.239 281.057L109.543 283.827L105.366 285.16L106.435 289.246L110.478 288.475L120.359 286.589L118.239 281.057Z" fill="#EBB376"/>
<path d="M107.576 289.439L106.84 284.622C106.83 284.558 106.806 284.497 106.769 284.442C106.733 284.387 106.684 284.339 106.626 284.3C106.569 284.262 106.503 284.235 106.433 284.22C106.363 284.205 106.291 284.202 106.22 284.212L103.525 284.614C103.525 284.614 99.9316 284.911 99.186 285.746C97.0839 288.154 98.3954 298.864 99.7968 299.241C100.309 299.377 100.848 298.751 101.072 298.318C101.782 296.937 103.031 293.332 103.642 292.192C104.342 290.851 106.337 290.201 107.163 289.968C107.293 289.942 107.408 289.872 107.484 289.775C107.56 289.677 107.593 289.557 107.576 289.439Z" fill="#407BFF"/>
<path d="M104.423 290.619C104.442 290.606 104.466 290.6 104.49 290.6C104.514 290.6 104.538 290.606 104.557 290.619C104.638 290.619 106.094 291.181 106.354 291.895C106.386 291.985 106.397 292.079 106.388 292.173C106.379 292.267 106.349 292.358 106.3 292.441C106.272 292.53 106.209 292.607 106.124 292.66C106.039 292.713 105.936 292.737 105.833 292.73C105.213 292.666 104.468 291.349 104.387 290.755V290.619C104.399 290.617 104.411 290.617 104.423 290.619ZM106.076 292.264C106.111 292.165 106.111 292.059 106.076 291.959C105.905 291.502 105.096 291.1 104.683 290.916C104.881 291.534 105.483 292.417 105.851 292.449C105.851 292.449 105.959 292.449 106.04 292.313V292.264H106.076Z" fill="#263238"/>
<path opacity="0.2" d="M118.239 281.057L109.543 283.827L110.478 288.475L120.359 286.589L118.239 281.057Z" fill="black"/>
<path d="M112.023 289.174L114.52 289.334L112.849 281.643L110.011 283.04L112.023 289.174Z" fill="#407BFF"/>
<path opacity="0.6" d="M112.023 289.174L114.52 289.334L112.849 281.643L110.011 283.04L112.023 289.174Z" fill="white"/>
<path opacity="0.2" d="M75.7393 259.309L88.7652 272.218C88.7652 272.218 103.139 271.929 120.656 279.572C120.656 279.572 139.423 272.644 141.147 266.888C143.411 259.349 98.0271 265.242 98.0271 265.242L75.7393 259.309Z" fill="black"/>
<path d="M93.8315 264.471L67.2676 261.717C67.7764 259.266 68.0767 256.783 68.166 254.291C68.2724 250.74 68.1164 247.187 67.6989 243.654C67.3305 240.274 66.8005 236.389 65.9022 231.829C65.7225 231.013 65.7492 230.172 65.9803 229.367C66.2115 228.562 66.6413 227.813 67.2382 227.176C67.8351 226.539 68.584 226.029 69.4301 225.684C70.2761 225.338 71.1978 225.167 72.1277 225.181C73.1967 225.181 74.3196 225.229 75.4695 225.294C79.5374 225.456 83.5871 225.878 87.5881 226.554C88.8817 226.787 90.2202 227.076 91.5048 227.357C96.1133 228.425 98.9701 233.611 98.5748 237.793C98.4193 241.044 98.0171 244.282 97.371 247.483C96.5535 252.204 95.5923 256.812 93.8315 264.471Z" fill="#407BFF"/>
<path opacity="0.7" d="M93.8315 264.471L67.2676 261.717C67.7764 259.266 68.0767 256.783 68.166 254.291C68.2724 250.74 68.1164 247.187 67.6989 243.654C67.3305 240.274 66.8005 236.389 65.9022 231.829C65.7225 231.013 65.7492 230.172 65.9803 229.367C66.2115 228.562 66.6413 227.813 67.2382 227.176C67.8351 226.539 68.584 226.029 69.4301 225.684C70.2761 225.338 71.1978 225.167 72.1277 225.181C73.1967 225.181 74.3196 225.229 75.4695 225.294C79.5374 225.456 83.5871 225.878 87.5881 226.554C88.8817 226.787 90.2202 227.076 91.5048 227.357C96.1133 228.425 98.9701 233.611 98.5748 237.793C98.4193 241.044 98.0171 244.282 97.371 247.483C96.5535 252.204 95.5923 256.812 93.8315 264.471Z" fill="white"/>
<path opacity="0.2" d="M68.1839 254.299C68.2904 250.748 68.1343 247.195 67.7168 243.662C71.0407 240.154 74.1848 237.24 74.1848 237.24C74.1848 237.24 79.3952 249.226 68.1839 254.299Z" fill="black"/>
<path d="M72.3794 235.939C72.6848 241.021 72.6309 248.928 73.664 253.786L73.3945 253.191C73.2148 252.959 73.3226 253.191 73.5113 253.32C73.7543 253.535 74.0124 253.736 74.2839 253.922C77.8772 256.33 82.1893 258.185 86.2408 260.104L91.3523 262.456C91.7954 262.655 92.1414 262.992 92.3245 263.403C92.5076 263.815 92.515 264.273 92.3453 264.689C92.1756 265.105 91.8407 265.451 91.4042 265.661C90.9677 265.871 90.4601 265.93 89.9779 265.828C88.0285 265.41 86.1599 264.913 84.2644 264.399C78.8744 262.793 73.3406 261.252 68.7052 258.113C67.7998 257.484 67.0963 256.654 66.6659 255.704C64.5908 249.121 64.4291 242.763 64.2764 236.051C64.465 231.371 72.047 231.283 72.3614 235.963L72.3794 235.939Z" fill="#E9B376"/>
<path d="M98.5209 262.167L96.9039 261.115C96.6043 260.921 96.257 260.795 95.8911 260.746C95.5253 260.697 95.1517 260.727 94.8017 260.834L91.4779 261.83C90.8227 262.028 90.2299 262.363 89.7487 262.807C89.2675 263.251 88.9117 263.791 88.711 264.383L88.4595 265.129C91.0108 267.024 95.3318 267.401 95.3318 267.401L96.5445 267.626C96.7929 267.68 97.0507 267.689 97.303 267.653C97.5553 267.617 97.7971 267.536 98.0144 267.416C98.2316 267.296 98.42 267.138 98.5686 266.952C98.7173 266.767 98.8232 266.556 98.8802 266.334L99.4192 264.182C99.5058 263.805 99.4669 263.413 99.3073 263.055C99.1477 262.696 98.8743 262.388 98.5209 262.167Z" fill="#EBB376"/>
<path d="M69.9536 225.51C64.7612 227.172 63.2699 231.219 63.1621 239.656C65.8571 241.848 74.041 241.968 74.041 241.968C74.041 241.968 75.4604 229.171 69.9536 225.51Z" fill="#407BFF"/>
<path d="M132.855 266.815V268.726C132.855 269.216 132.208 269.416 131.66 269.416H88.9354C88.3784 269.416 87.7227 269.216 87.7227 268.726V266.815H132.855Z" fill="#263238"/>
<path opacity="0.4" d="M132.855 266.815V268.726C132.855 269.216 132.208 269.416 131.66 269.416H88.9354C88.3784 269.416 87.7227 269.216 87.7227 268.726V266.815H132.855Z" fill="white"/>
<path opacity="0.2" d="M132.855 266.815V268.726C132.855 269.216 132.209 269.416 131.661 269.416H103.453C102.905 269.416 102.249 269.216 102.249 268.726V266.815H132.855Z" fill="black"/>
<path d="M140.015 246.954L134.922 267.594C134.827 267.924 134.615 268.217 134.316 268.429C134.018 268.641 133.65 268.759 133.269 268.766H105.42C105.247 268.762 105.077 268.722 104.924 268.649C104.771 268.576 104.638 268.473 104.538 268.347C104.437 268.221 104.37 268.076 104.342 267.923C104.314 267.77 104.327 267.613 104.378 267.465L109.463 246.986C109.567 246.673 109.788 246.402 110.088 246.218C110.389 246.034 110.752 245.948 111.116 245.974H138.964C139.71 245.974 140.141 246.279 140.015 246.954Z" fill="#263238"/>
<path opacity="0.4" d="M140.015 246.954L134.922 267.594C134.827 267.924 134.615 268.217 134.316 268.429C134.018 268.641 133.65 268.759 133.269 268.766H106.39C106.217 268.761 106.047 268.721 105.894 268.649C105.74 268.576 105.608 268.473 105.506 268.347C105.405 268.221 105.337 268.077 105.308 267.924C105.279 267.771 105.29 267.614 105.339 267.465L110.433 246.986C110.537 246.673 110.758 246.402 111.059 246.218C111.36 246.034 111.722 245.948 112.086 245.974H138.964C139.71 245.974 140.141 246.279 140.015 246.954Z" fill="white"/>
<path opacity="0.2" d="M126.298 257.439C126.209 258.276 125.791 259.057 125.118 259.645C124.446 260.233 123.562 260.589 122.623 260.65C121.069 260.65 120.144 259.213 120.593 257.439C121.042 255.664 122.578 254.292 124.097 254.227C123.656 255.993 124.609 257.439 126.154 257.439H126.298Z" fill="black"/>
<path d="M130.708 235.449L136.691 235.586L133.996 230.175C133.996 230.175 128.66 230.343 128.867 232.8L130.708 235.449Z" fill="#EBB376"/>
<path d="M141.821 232.953L137.725 229.003L133.979 230.175L136.692 235.586L141.821 232.953Z" fill="#EBB376"/>
<path d="M74.1576 225.237C73.5467 225.197 75.4152 231.901 84.4885 233.555C93.5617 235.208 92.861 227.75 92.1513 225.88C92.1513 225.88 80.2213 225.591 74.1576 225.237Z" fill="#EBB376"/>
<path d="M76.6464 199.026C76.6464 199.026 81.8478 193.872 91.3612 196.529C100.875 199.186 100.47 214.359 95.6373 219.867C88.0682 219.629 80.4963 220.261 73.1069 221.745C73.1069 221.745 68.5254 210.739 70.7982 204.268C73.071 197.797 76.6464 199.026 76.6464 199.026Z" fill="#263238"/>
<path d="M78.5599 214.159C79.1617 217.739 79.6289 224.226 76.7632 226.281C76.7632 226.281 80.5003 226.169 87.7499 231.291C90.382 228.625 88.8279 227.526 88.8279 227.526C84.5428 226.153 84.7854 223.263 85.6567 220.621L78.5599 214.159Z" fill="#EBB376"/>
<path opacity="0.2" d="M81.4704 216.8L85.7015 220.621C85.488 221.24 85.3348 221.874 85.2434 222.516C83.5994 222.131 81.3985 220.26 81.2997 218.679C81.2299 218.048 81.2877 217.412 81.4704 216.8Z" fill="black"/>
<path d="M76.1434 206.853C76.5926 212.577 76.6555 215.002 79.8805 218.093C84.7405 222.685 92.4573 221.304 93.8497 215.684C95.1523 210.61 94.1911 202.101 87.9746 199.588C86.6633 199.008 85.2025 198.751 83.7431 198.844C82.2836 198.937 80.8784 199.376 79.6725 200.117C78.4666 200.857 77.5037 201.872 76.8834 203.056C76.263 204.241 76.0075 205.551 76.1434 206.853Z" fill="#EBB376"/>
<path d="M84.0306 208.611C84.0306 209.101 84.3271 209.494 84.6774 209.51C85.0278 209.526 85.2793 209.141 85.2703 208.659C85.2614 208.178 84.9649 207.776 84.6235 207.768C84.2822 207.76 84.0127 208.129 84.0306 208.611Z" fill="#263238"/>
<path d="M90.7319 208.675C90.7319 209.157 91.0374 209.558 91.3787 209.574C91.7201 209.591 91.9806 209.205 91.9716 208.724C91.9627 208.242 91.6662 207.84 91.3248 207.832C90.9835 207.824 90.7319 208.194 90.7319 208.675Z" fill="#263238"/>
<path d="M91.1455 207.849L92.3942 207.56C92.3942 207.56 91.7743 208.443 91.1455 207.849Z" fill="#263238"/>
<path d="M88.7017 209.663C89.204 210.781 89.862 211.838 90.66 212.81C90.391 212.974 90.084 213.081 89.7621 213.124C89.4401 213.167 89.1114 213.145 88.8005 213.059L88.7017 209.663Z" fill="#D58745"/>
<path d="M82.9523 205.561C82.9927 205.566 83.0341 205.564 83.0732 205.553C83.1122 205.541 83.1477 205.522 83.1768 205.496C83.4572 205.264 83.7981 205.099 84.1684 205.015C84.5387 204.931 84.9266 204.931 85.2969 205.015C85.3347 205.026 85.3745 205.029 85.414 205.026C85.4535 205.022 85.4917 205.012 85.5263 204.994C85.5609 204.977 85.5911 204.953 85.615 204.925C85.6389 204.897 85.656 204.865 85.6652 204.83C85.6876 204.756 85.6767 204.676 85.6348 204.609C85.5929 204.541 85.5233 204.491 85.4407 204.469C84.9719 204.356 84.4788 204.352 84.0076 204.456C83.5363 204.56 83.1022 204.769 82.7456 205.063C82.688 205.115 82.6558 205.186 82.6558 205.26C82.6558 205.333 82.688 205.404 82.7456 205.456C82.7972 205.513 82.8711 205.55 82.9523 205.561Z" fill="#263238"/>
<path d="M93.3372 205.609C93.4095 205.633 93.4895 205.633 93.5618 205.609C93.5966 205.589 93.6267 205.563 93.6502 205.533C93.6737 205.503 93.6901 205.469 93.6985 205.433C93.7069 205.397 93.7071 205.36 93.699 205.324C93.691 205.288 93.6748 205.254 93.6516 205.223C93.4047 204.827 93.0592 204.487 92.6417 204.23C92.2242 203.972 91.746 203.804 91.2441 203.738C91.2041 203.736 91.164 203.741 91.1264 203.753C91.0888 203.766 91.0545 203.785 91.0257 203.81C90.997 203.835 90.9744 203.865 90.9594 203.898C90.9444 203.932 90.9373 203.967 90.9386 204.003C90.9401 204.078 90.9718 204.15 91.0278 204.206C91.0839 204.262 91.1607 204.298 91.2441 204.308C91.6411 204.362 92.0188 204.498 92.3476 204.704C92.6764 204.91 92.9475 205.181 93.1396 205.496C93.1626 205.526 93.1919 205.551 93.2258 205.57C93.2598 205.589 93.2976 205.602 93.3372 205.609Z" fill="#263238"/>
<path d="M84.4438 207.784L85.6925 207.503C85.6925 207.503 85.0996 208.378 84.4438 207.784Z" fill="#263238"/>
<path d="M77.4727 210.289C77.4727 210.289 82.4136 206.821 81.2907 201.394C81.2907 201.394 90.1303 198.271 93.6159 206.211C93.6159 206.211 94.3525 199.403 86.0429 198.07C77.7333 196.738 67.8964 206.805 77.311 214.44L77.4727 210.289Z" fill="#263238"/>
<path d="M74.1037 211.477C74.4242 212.008 74.859 212.477 75.3832 212.858C75.9074 213.238 76.5106 213.522 77.158 213.693C78.8379 214.102 79.5925 212.625 79.0535 211.1C78.5594 209.727 77.0951 207.889 75.4602 208.121C73.8252 208.354 73.2682 210.12 74.1037 211.477Z" fill="#EBB376"/>
<path d="M94.5864 209.583C94.5459 209.582 94.5066 209.571 94.4743 209.549C94.4419 209.527 94.4182 209.497 94.4067 209.462C91.2355 199.483 80.7699 201.538 80.6621 201.555C80.6391 201.559 80.6153 201.56 80.592 201.556C80.5687 201.553 80.5464 201.545 80.5264 201.534C80.5064 201.523 80.489 201.508 80.4753 201.491C80.4616 201.474 80.4518 201.455 80.4465 201.434C80.4412 201.414 80.4405 201.392 80.4444 201.371C80.4483 201.351 80.4567 201.331 80.4692 201.313C80.4817 201.295 80.4981 201.279 80.5173 201.267C80.5365 201.255 80.5582 201.246 80.5812 201.241C80.689 201.241 91.4961 199.098 94.757 209.374C94.7639 209.394 94.766 209.416 94.7633 209.437C94.7607 209.459 94.7533 209.479 94.7415 209.498C94.7298 209.517 94.714 209.533 94.6951 209.546C94.6761 209.559 94.6544 209.569 94.6313 209.575L94.5864 209.583Z" fill="#263238"/>
<path d="M89.1151 214.721C88.8015 215.377 88.5433 216.053 88.3425 216.744H87.9203C86.0248 216.559 85.2253 215.941 84.8839 215.259C84.7309 214.934 84.6662 214.582 84.6952 214.231C84.7091 214.032 84.7513 213.835 84.821 213.645C85.9387 214.223 87.1827 214.579 88.4683 214.689C88.8635 214.705 89.1151 214.721 89.1151 214.721Z" fill="#263238"/>
<path d="M88.4683 214.656L88.2258 215.243C86.4291 215.074 85.1984 214.737 84.6953 214.199C84.7091 214 84.7514 213.803 84.8211 213.613C85.9388 214.191 87.1828 214.547 88.4683 214.656Z" fill="white"/>
<path d="M87.9207 216.712C86.0252 216.527 85.2256 215.909 84.8843 215.226C85.6043 215.31 86.3031 215.502 86.9505 215.796C87.3721 216.004 87.711 216.324 87.9207 216.712Z" fill="#DE5753"/>
<path d="M87.6149 241.471C87.5863 241.472 87.5577 241.468 87.5313 241.458C87.5048 241.448 87.4812 241.433 87.4622 241.414C82.6888 236.841 79.0896 231.391 76.9157 225.446C76.9019 225.397 76.9102 225.346 76.9388 225.302C76.9673 225.259 77.0139 225.227 77.0684 225.214C77.0949 225.208 77.1225 225.206 77.1496 225.21C77.1767 225.214 77.2027 225.222 77.2261 225.235C77.2495 225.248 77.2698 225.264 77.2859 225.284C77.302 225.304 77.3136 225.326 77.3199 225.35C79.4359 231.132 82.916 236.44 87.525 240.917C88.064 239.311 90.3009 231.684 86.9321 225.84C86.9157 225.796 86.9171 225.749 86.9362 225.706C86.9554 225.664 86.9908 225.629 87.0363 225.607C87.0818 225.586 87.1343 225.58 87.1844 225.59C87.2345 225.6 87.2788 225.626 87.3094 225.663C91.1633 232.351 87.8484 241.254 87.8125 241.342C87.8007 241.373 87.7806 241.401 87.754 241.423C87.7273 241.446 87.695 241.462 87.6598 241.471H87.6149Z" fill="#263238"/>
<path d="M87.8932 241.133L88.576 241.936C88.6372 242.004 88.6705 242.089 88.6705 242.177C88.6705 242.264 88.6372 242.349 88.576 242.418L87.8842 243.221C87.8429 243.264 87.7913 243.3 87.7332 243.324C87.675 243.348 87.6115 243.361 87.5474 243.361C87.4832 243.361 87.4197 243.348 87.3615 243.324C87.3034 243.3 87.2518 243.264 87.2105 243.221L86.5637 242.562C86.5068 242.495 86.4761 242.413 86.4761 242.329C86.4761 242.245 86.5068 242.164 86.5637 242.097L87.1386 241.165C87.1762 241.107 87.2296 241.058 87.2938 241.023C87.358 240.988 87.431 240.968 87.5061 240.965C87.5812 240.962 87.656 240.976 87.7236 241.005C87.7913 241.034 87.8496 241.079 87.8932 241.133Z" fill="white"/>
<path opacity="0.7" d="M69.9536 225.51C64.7612 227.172 63.2699 231.219 63.1621 239.656C65.8571 241.848 74.041 241.968 74.041 241.968C74.041 241.968 75.4604 229.171 69.9536 225.51Z" fill="white"/>
<path d="M124.276 289.904L133.386 291.245L137.76 291.887L139.036 287.849L135.083 286.773L125.417 284.148L124.276 289.904Z" fill="#EBB376"/>
<path d="M138.146 287.191L136.179 291.718C136.153 291.779 136.141 291.844 136.143 291.908C136.146 291.973 136.162 292.037 136.192 292.096C136.222 292.155 136.265 292.208 136.319 292.252C136.372 292.296 136.434 292.33 136.502 292.353L139.045 293.155C139.045 293.155 142.378 294.456 143.456 294.039C146.609 292.826 151.253 282.896 150.229 281.996C149.852 281.651 149.043 281.996 148.612 282.253C147.247 283.152 144.201 285.762 143.051 286.5C141.704 287.367 139.647 287.094 138.757 286.926C138.637 286.897 138.509 286.908 138.397 286.957C138.285 287.006 138.196 287.088 138.146 287.191Z" fill="#407BFF"/>
<path opacity="0.2" d="M124.276 289.904L133.386 291.245L135.083 286.773L125.417 284.148L124.276 289.904Z" fill="black"/>
<path d="M133.511 285.93C133.511 285.93 96.3738 267.273 83.5455 267.803C70.7172 268.332 68.8846 278.432 74.1668 284.75C79.4491 291.068 89.223 292.61 89.223 292.61C89.223 292.61 82.5843 284.196 83.5455 281.852C84.5067 279.508 88.2618 282.783 88.2618 282.783C88.2618 282.783 111.619 289.527 132.074 291.076L133.511 285.93Z" fill="#263238"/>
<path d="M134.113 285.416L132.011 284.156L129.307 291.566H132.55L134.113 285.416Z" fill="#407BFF"/>
<path opacity="0.6" d="M134.113 285.416L132.011 284.156L129.307 291.566H132.55L134.113 285.416Z" fill="white"/>
</svg>
