<svg width="68" height="60" viewBox="0 0 68 60" fill="none" xmlns="http://www.w3.org/2000/svg">
<path d="M54.1616 9.67252L25.6855 59.739C25.5812 59.9264 25.3431 60.0285 25.1131 59.9929L5.86336 56.8961C5.77241 56.8818 5.7082 56.8391 5.66808 56.7655C5.63063 56.6944 5.63063 56.6208 5.67343 56.552L8.41269 52.0313L18.8989 53.7186C19.1183 53.7518 19.3376 53.7708 19.557 53.7708C20.9507 53.7708 22.2695 53.0731 22.9115 51.9459L47.078 9.45183L54.1616 9.67252Z" fill="white"/>
<path d="M48.52 0.595634L45.1387 6.54248L44.3415 7.9402L43.547 9.34029L20.0439 50.6621C19.9396 50.8495 19.7042 50.9516 19.4715 50.916L10.0098 49.3949L8.35126 49.1267L6.69005 48.8586L0.221756 47.8192C0.130804 47.8049 0.0666021 47.7622 0.0264763 47.6887C-0.0109746 47.6175 -0.0109746 47.5439 0.0318264 47.4751L28.4864 0.498339C28.6764 0.18747 29.0321 0 29.4281 0H29.4682L48.52 0.595634Z" fill="#4061FD"/>
<path d="M67.8607 31.8249L62.8557 40.2302C62.8477 40.2444 62.8263 40.28 62.7648 40.2824C62.6979 40.2943 62.6792 40.2492 62.6711 40.2373L51.2085 23.728L56.8582 14.523L67.8286 30.776C68.0426 31.094 68.056 31.4974 67.8607 31.8249Z" fill="#4061FD"/>
</svg>
